<?xml version="1.0" standalone="no"?>
<!DOCTYPE svg PUBLIC "-//W3C//DTD SVG 20010904//EN"
 "http://www.w3.org/TR/2001/REC-SVG-20010904/DTD/svg10.dtd">
<svg version="1.0" xmlns="http://www.w3.org/2000/svg"
 width="1024.000000pt" height="1024.000000pt" viewBox="0 0 1024.000000 1024.000000"
 preserveAspectRatio="xMidYMid meet">
<metadata>
Created by potrace 1.14, written by Peter Selinger 2001-2017
</metadata>
<g transform="translate(0.000000,1024.000000) scale(0.100000,-0.100000)"
fill="#000000" stroke="none">
<path d="M4765 10234 c-379 -37 -605 -73 -872 -139 -1730 -428 -3106 -1712
-3652 -3408 -100 -310 -174 -660 -218 -1022 -26 -216 -26 -874 0 -1090 74
-614 231 -1162 481 -1680 508 -1051 1340 -1883 2391 -2391 518 -250 1066 -407
1680 -481 216 -26 874 -26 1090 0 614 74 1162 231 1680 481 1051 508 1883
1340 2391 2391 250 518 407 1066 481 1680 14 121 18 227 18 545 0 430 -7 523
-66 870 -230 1371 -1032 2608 -2194 3385 -693 463 -1446 738 -2300 841 -101
12 -241 17 -505 19 -201 1 -383 1 -405 -1z m490 -474 c0 -30 -4 -35 -26 -38
-36 -4 -55 21 -40 54 9 20 17 25 39 22 24 -3 27 -7 27 -38z m-868 -116 c8 -22
-10 -49 -32 -49 -10 0 -22 7 -28 16 -15 24 -1 49 28 49 15 0 28 -7 32 -16z
m1412 2 c15 -17 -12 -48 -34 -40 -18 7 -20 40 -2 47 20 9 24 8 36 -7z m306
-21 c0 -25 -4 -30 -24 -30 -32 0 -49 28 -31 50 7 9 23 15 34 13 16 -2 21 -10
21 -33z m-1338 -27 c31 -29 30 -71 -3 -97 -36 -28 -68 -26 -93 5 -27 35 -26
59 4 89 30 31 62 32 92 3z m298 -8 c0 -8 -10 -16 -22 -18 -18 -3 -23 2 -23 18
0 16 5 21 23 18 12 -2 22 -10 22 -18z m-906 -74 c20 -24 -4 -58 -37 -54 -27 3
-39 25 -28 54 7 18 50 18 65 0z m1109 -3 c5 -17 -26 -29 -40 -15 -6 6 -7 15
-3 22 9 14 37 9 43 -7z m-1888 -28 c7 -8 10 -25 6 -40 -5 -20 -13 -25 -36 -25
-23 0 -31 5 -36 25 -7 29 10 55 36 55 10 0 23 -7 30 -15z m285 -5 c4 -6 1 -18
-6 -26 -11 -13 -14 -13 -27 0 -8 8 -11 19 -8 25 9 14 33 14 41 1z m2630 -30
c14 -44 -44 -69 -65 -29 -9 15 -8 24 1 35 18 21 57 18 64 -6z m-287 -12 c-4
-27 -33 -36 -42 -13 -8 22 1 35 25 35 15 0 20 -6 17 -22z m-1814 -4 c25 -25
20 -71 -10 -90 -24 -16 -27 -16 -52 3 -34 25 -38 52 -12 81 24 26 52 28 74 6z
m1668 -1 c18 -16 24 -59 10 -79 -15 -23 -50 -34 -77 -24 -27 10 -50 54 -39 73
28 49 72 61 106 30z m-1393 -22 c14 -26 -8 -54 -39 -49 -25 3 -36 27 -26 54 8
20 53 17 65 -5z m-469 -45 c0 -28 -22 -39 -45 -23 -22 17 -9 47 21 47 19 0 24
-5 24 -24z m838 -8 c32 -32 -2 -79 -43 -60 -39 18 -27 72 15 72 9 0 21 -5 28
-12z m1722 -23 c26 -32 -13 -81 -47 -59 -35 22 -23 74 17 74 10 0 23 -7 30
-15z m-1220 -36 c0 -24 -27 -36 -48 -22 -23 14 -25 29 -7 47 21 20 55 5 55
-25z m704 -8 c10 -16 -5 -41 -24 -41 -23 0 -34 16 -26 35 6 16 42 20 50 6z
m-2835 -20 c20 -13 6 -61 -19 -61 -26 0 -46 36 -29 56 13 16 28 18 48 5z
m1126 -12 c0 -7 -8 -15 -17 -17 -18 -3 -25 18 -11 32 10 10 28 1 28 -15z
m2945 -4 c0 -8 -4 -15 -9 -15 -13 0 -22 16 -14 24 11 11 23 6 23 -9z m-257
-27 c8 -12 7 -21 -2 -32 -19 -23 -58 -20 -66 4 -14 43 44 67 68 28z m-2363
-48 c61 -61 -27 -154 -98 -104 -16 11 -22 25 -22 54 0 29 6 43 22 54 31 22 74
20 98 -4z m-1920 -25 c15 -18 6 -61 -16 -69 -24 -9 -54 12 -54 37 0 43 44 63
70 32z m1101 5 c37 -20 18 -80 -26 -80 -46 0 -60 48 -23 74 27 19 24 19 49 6z
m-506 -20 c11 -18 -6 -50 -26 -50 -22 0 -34 22 -25 45 6 17 42 20 51 5z m2445
-30 c-20 -13 -40 -13 -40 0 0 6 12 10 28 10 21 0 24 -2 12 -10z m-2823 -16 c8
-21 -19 -46 -40 -38 -17 6 -23 35 -10 47 12 13 44 7 50 -9z m53 -4 c0 -13 -7
-20 -20 -20 -19 0 -27 20 -13 33 13 14 33 6 33 -13z m2160 6 c10 -13 7 -14
-15 -10 -17 3 -24 1 -20 -6 3 -5 2 -10 -3 -10 -12 0 -23 26 -15 34 11 11 40 6
53 -8z m560 11 c0 -3 -19 -17 -41 -32 -23 -15 -38 -22 -35 -16 4 6 0 11 -8 11
-10 0 -13 -6 -9 -16 5 -13 0 -15 -26 -11 -17 3 -29 2 -27 -2 3 -4 -33 -22 -80
-40 -83 -33 -116 -61 -51 -44 17 4 51 8 74 8 22 0 39 3 36 8 -2 4 1 7 6 7 6 0
11 -2 11 -4 0 -2 3 -11 6 -19 4 -11 -9 -20 -48 -32 -91 -30 -86 -37 33 -50 32
-3 109 1 178 10 67 9 139 18 159 21 20 2 73 11 117 20 44 8 94 13 112 12 17
-2 30 -1 27 3 -9 15 18 20 119 25 56 3 129 9 162 15 64 11 179 19 157 12 -10
-4 -10 -9 3 -23 15 -16 13 -18 -27 -23 -24 -4 -59 -15 -79 -25 l-36 -19 28
-10 c20 -8 29 -19 30 -35 l2 -23 4 23 c2 12 7 22 11 22 4 0 18 3 31 7 18 5 22
3 16 -7 -5 -8 -4 -11 3 -6 6 4 8 14 5 22 -5 13 -1 15 17 9 12 -4 20 -3 17 1
-3 5 18 7 46 5 35 -2 46 -6 33 -11 -17 -5 -17 -7 -4 -13 10 -3 19 0 22 9 6 16
52 19 61 4 3 -5 1 -18 -4 -28 -9 -17 -7 -18 37 -11 26 4 69 8 96 8 39 1 47 -2
42 -14 -4 -12 -2 -13 12 -7 21 12 53 9 167 -11 50 -9 108 -18 130 -21 97 -10
205 -30 205 -36 0 -5 -12 -11 -26 -14 -43 -11 -16 -22 96 -40 115 -19 137 -27
100 -36 -20 -5 -6 -11 60 -29 47 -12 94 -26 105 -31 19 -8 19 -9 -3 -9 -26 -1
-20 -21 6 -21 9 0 24 -5 32 -10 13 -9 13 -12 -2 -21 -26 -15 -22 -26 12 -32
17 -4 30 -13 30 -21 0 -8 32 -27 78 -45 209 -85 257 -109 339 -166 67 -48 80
-70 35 -63 -28 4 -29 3 -19 -19 5 -13 15 -23 22 -23 15 0 103 -66 147 -109 31
-32 32 -33 8 -26 -14 4 -29 13 -35 19 -5 7 -16 11 -22 9 -7 -3 -13 -1 -13 4 0
12 -96 56 -111 51 -6 -2 5 -15 25 -28 20 -14 36 -31 36 -37 0 -7 4 -13 10 -13
5 0 23 -13 39 -29 17 -16 39 -32 50 -36 21 -6 49 -35 35 -35 -5 0 -25 10 -44
22 -32 19 -106 60 -202 110 -20 11 -49 21 -65 23 -15 2 -41 11 -58 19 -41 21
-46 1 -9 -31 16 -14 70 -45 119 -70 50 -25 97 -51 106 -59 9 -8 74 -50 145
-94 126 -77 215 -137 256 -172 12 -10 24 -18 27 -18 11 0 134 -121 129 -126
-7 -7 -58 17 -58 28 0 4 -7 8 -15 8 -8 0 -15 5 -15 10 0 6 -6 10 -13 10 -8 0
-22 9 -31 19 -10 11 -31 23 -47 26 -16 4 -32 12 -36 18 -5 7 -20 18 -34 25
-14 8 -55 36 -90 62 -35 27 -68 49 -72 50 -5 0 -22 9 -38 21 -16 11 -29 17
-29 12 0 -4 -7 0 -14 10 -9 12 -16 14 -21 8 -3 -6 -1 -11 4 -11 6 0 11 -7 11
-15 0 -8 6 -15 14 -15 13 0 61 -33 126 -88 19 -17 64 -54 100 -83 110 -90 440
-427 440 -449 0 -6 4 -10 10 -10 15 0 71 -81 63 -93 -3 -6 -1 -7 6 -3 16 10
41 -12 34 -30 -3 -8 -1 -14 5 -12 13 4 122 -141 122 -162 0 -6 3 -10 8 -10 10
0 65 -90 59 -97 -11 -10 -187 178 -187 200 0 5 -3 7 -7 4 -8 -9 -133 123 -133
141 0 7 -4 11 -9 8 -5 -3 -14 1 -21 9 -7 8 -17 12 -23 8 -5 -3 -7 -1 -3 5 3 6
-1 18 -10 27 -14 13 -19 14 -25 3 -6 -9 -9 -6 -10 12 -1 19 -2 21 -6 6 -3 -11
4 -27 19 -40 24 -23 48 -53 99 -123 17 -24 35 -43 40 -43 5 0 9 -7 9 -15 0 -8
4 -15 8 -15 5 0 24 -24 42 -52 18 -29 43 -69 55 -88 47 -72 102 -177 165 -315
23 -49 48 -103 55 -120 63 -137 150 -355 160 -400 13 -64 27 -121 33 -135 3
-8 7 -22 8 -30 1 -8 6 -42 12 -75 5 -33 8 -62 6 -64 -10 -11 -84 96 -84 122 0
5 -7 15 -15 23 -8 9 -15 33 -15 53 0 35 -22 72 -35 59 -3 -2 0 -31 6 -64 10
-54 6 -411 -6 -469 -2 -11 -4 -39 -4 -62 -1 -24 -5 -43 -10 -43 -9 0 -34 78
-31 95 2 6 2 25 1 44 -1 33 -2 33 -20 17 -10 -9 -21 -29 -24 -44 -3 -15 -11
-45 -17 -67 -7 -22 -16 -72 -20 -112 -5 -40 -12 -77 -16 -84 -4 -6 -8 -38 -8
-70 -2 -43 -7 -64 -23 -81 -11 -13 -41 -87 -67 -166 -56 -170 -107 -305 -113
-299 -2 3 14 62 36 133 41 130 65 216 76 266 5 24 1 29 -28 42 -19 7 -43 25
-54 39 l-20 26 -22 -65 c-26 -80 -77 -182 -147 -296 -30 -48 -54 -91 -54 -95
0 -5 -11 -21 -25 -37 -13 -16 -22 -33 -19 -37 3 -5 0 -9 -5 -9 -6 0 -11 -6
-11 -14 0 -7 -7 -20 -16 -27 -16 -13 36 96 72 152 10 16 14 34 10 45 -5 14 -9
15 -15 5 -5 -7 -11 -12 -15 -12 -3 1 -25 -19 -48 -44 -32 -34 -45 -42 -55 -33
-10 8 -13 6 -13 -6 0 -9 -4 -16 -10 -16 -5 0 -10 -6 -10 -13 0 -7 -8 -20 -17
-28 -10 -9 -51 -62 -92 -118 -72 -100 -104 -130 -115 -112 -3 5 21 52 54 104
33 53 60 100 60 105 0 6 15 29 34 51 37 44 52 78 41 89 -4 4 -17 -6 -29 -22
-11 -16 -39 -50 -61 -75 -22 -25 -78 -96 -124 -158 -72 -96 -106 -132 -116
-121 -3 3 91 138 114 164 5 6 19 29 30 50 12 21 31 55 43 74 17 30 13 27 -33
-20 -30 -30 -76 -81 -104 -112 -27 -32 -51 -56 -52 -54 -5 5 39 80 49 84 4 2
8 8 8 14 0 5 8 22 18 36 24 37 54 105 43 98 -5 -3 -7 3 -4 14 3 11 9 17 14 14
5 -3 6 2 3 10 -3 8 13 46 35 86 23 39 41 78 41 86 0 9 4 13 9 10 4 -3 14 7 20
22 l12 27 -31 -31 c-17 -17 -32 -38 -34 -48 -1 -9 -6 -16 -10 -16 -4 1 -66
-59 -139 -133 -73 -73 -158 -153 -190 -178 -32 -24 -73 -55 -91 -69 -18 -14
-70 -52 -115 -86 -70 -52 -79 -63 -66 -74 21 -17 19 -33 -6 -56 -19 -17 -22
-17 -33 -2 -11 15 -15 14 -49 -2 -20 -10 -56 -32 -79 -49 -23 -17 -47 -31 -54
-31 -7 0 -14 -4 -16 -9 -3 -9 -70 -55 -119 -82 -31 -17 -110 -70 -119 -79 -11
-11 -88 -50 -99 -50 -27 0 -3 31 106 134 196 185 563 549 563 559 0 9 -16 -3
-175 -139 -234 -198 -465 -365 -865 -622 -124 -79 -244 -157 -267 -173 -23
-16 -44 -29 -47 -29 -3 0 -48 -27 -102 -61 -54 -34 -100 -57 -105 -52 -5 5 38
56 96 116 109 113 172 188 158 186 -4 0 -20 -8 -35 -17 -15 -9 -60 -37 -100
-61 -40 -25 -104 -65 -142 -90 -82 -55 -76 -52 -151 -94 -33 -19 -134 -79
-225 -134 -471 -285 -549 -279 -118 9 76 51 135 94 133 96 -3 3 -22 -6 -43
-20 -20 -14 -56 -35 -79 -46 -36 -19 -42 -20 -45 -6 -2 13 -25 4 -110 -40
-295 -154 -547 -310 -756 -468 -103 -77 -123 -87 -152 -68 -35 22 212 204 510
375 176 101 367 231 356 242 -9 10 -451 -219 -656 -340 -354 -208 -566 -394
-651 -571 -8 -16 -20 -32 -28 -34 -11 -4 -12 11 -6 84 l7 89 -30 -33 c-32 -36
-56 -112 -54 -170 2 -51 38 -122 89 -174 25 -25 42 -51 39 -57 -12 -19 -89
-12 -144 14 -29 13 -50 20 -46 14 9 -14 154 -109 167 -109 5 0 33 -11 61 -24
28 -13 63 -27 79 -30 22 -5 27 -3 27 13 0 23 36 52 56 44 17 -6 18 -45 2 -61
-9 -9 -8 -12 3 -16 29 -9 106 -19 159 -20 30 -1 62 -6 70 -11 20 -13 174 -16
387 -9 157 6 172 8 176 25 6 23 43 25 55 4 7 -14 18 -14 75 -5 37 6 78 15 92
20 15 6 39 10 55 10 30 0 174 32 250 55 25 7 70 19 100 25 30 7 115 32 188 56
185 61 210 59 179 -15 -12 -29 -137 -131 -160 -131 -4 0 -45 -18 -91 -39 -149
-72 -367 -144 -601 -200 -27 -7 -54 -16 -60 -21 -5 -4 -37 -11 -70 -15 -113
-13 -130 -15 -170 -26 -73 -20 -71 -24 15 -27 118 -4 310 15 330 33 20 18 42
19 58 3 9 -9 25 -8 69 5 98 27 227 59 254 62 62 7 403 124 444 151 44 31 97 6
70 -33 -13 -19 -126 -83 -146 -83 -4 0 -32 -11 -61 -24 -48 -22 -73 -29 -133
-40 -11 -2 -45 -13 -75 -23 -103 -36 -195 -62 -350 -98 -85 -19 -184 -42 -220
-50 -162 -37 -513 -90 -620 -94 -30 -1 -73 -6 -95 -11 -22 -5 -131 -12 -243
-16 -194 -7 -203 -8 -228 -30 -14 -13 -29 -24 -34 -24 -11 0 -40 29 -40 41 0
5 -29 9 -64 9 -76 0 -324 26 -381 40 -22 5 -55 10 -73 10 -45 0 -352 84 -399
109 -10 5 -40 17 -66 26 -27 10 -68 32 -93 51 -24 19 -48 34 -52 34 -26 0 -75
88 -62 110 6 9 37 -5 121 -57 123 -75 240 -127 310 -137 l44 -7 -24 19 c-13
10 -40 24 -60 31 -58 21 -211 122 -263 176 -27 28 -69 84 -93 125 l-44 75 3
90 c1 49 6 100 9 113 12 45 54 128 88 172 48 62 55 75 38 65 -57 -33 -146
-104 -189 -152 -87 -96 -130 -214 -130 -353 0 -74 -8 -90 -32 -62 -42 47 -50
82 -46 196 4 98 8 119 35 178 41 87 77 139 153 216 34 35 60 66 56 69 -14 14
16 43 43 41 20 -1 45 13 97 54 38 30 114 84 169 119 163 103 213 148 148 133
-71 -16 -342 -160 -343 -181 0 -14 -39 -38 -47 -29 -10 10 -158 -113 -244
-202 -48 -49 -104 -114 -124 -145 -21 -32 -41 -57 -46 -57 -21 0 -17 24 12 82
94 188 252 332 602 552 31 20 60 36 62 36 3 0 26 15 52 34 27 19 113 70 193
114 80 44 174 97 210 117 36 21 135 75 219 121 l155 82 40 -26 c230 -145 533
-161 766 -41 207 106 357 291 410 507 7 28 20 47 38 59 66 40 110 69 321 209
333 222 340 226 356 220 31 -12 12 -36 -77 -97 -109 -76 -166 -125 -156 -134
19 -19 256 145 560 388 136 109 137 110 121 133 -12 19 -13 27 -3 39 16 19 44
19 60 0 14 -17 24 -10 206 145 61 52 146 124 189 160 107 90 344 335 441 457
91 113 180 256 219 350 41 102 74 228 75 290 1 32 4 82 7 111 5 46 8 52 29 52
32 0 64 -63 64 -127 0 -59 9 -95 22 -87 5 3 15 0 23 -6 13 -11 15 -6 15 33 0
25 5 49 10 52 13 8 2 162 -17 235 -8 30 -16 71 -19 90 -3 19 -9 37 -14 38 -6
2 -10 13 -10 24 0 22 -46 111 -84 161 -13 18 -27 42 -31 55 -3 12 -10 22 -15
22 -5 0 -17 14 -25 30 -9 17 -32 47 -51 68 -19 20 -53 56 -75 79 -35 37 -231
183 -245 183 -7 0 -93 59 -111 76 -18 17 -146 77 -163 77 -8 0 -20 4 -27 9 -7
6 -14 4 -19 -3 -4 -7 -3 -9 3 -6 5 4 16 -5 23 -18 7 -14 19 -25 27 -25 7 0 13
-4 13 -8 0 -4 28 -28 63 -52 132 -93 241 -193 337 -308 34 -41 41 -55 32 -64
-10 -10 -26 2 -75 53 -74 77 -175 167 -275 244 -79 60 -97 72 -242 150 -94 50
-114 60 -220 108 -51 23 -203 73 -250 82 -18 3 -46 12 -110 33 -8 2 -24 6 -36
7 -11 2 -38 8 -60 13 -21 6 -59 13 -84 16 -25 3 -55 8 -67 10 -11 3 -43 7 -70
11 -26 4 -57 8 -69 10 -11 2 -27 -1 -35 -6 -12 -8 -11 -12 5 -24 10 -8 24 -11
30 -7 27 16 93 -9 79 -31 -4 -6 0 -8 10 -4 20 8 53 -3 38 -12 -5 -4 7 -7 27
-8 20 0 50 -6 67 -13 24 -9 27 -13 15 -21 -11 -8 -7 -9 14 -4 25 5 28 4 23
-15 -4 -16 -3 -19 7 -11 10 8 23 7 49 -4 20 -8 46 -15 57 -15 11 0 20 -5 20
-11 0 -5 5 -7 10 -4 15 9 12 -4 -4 -21 -12 -11 -20 -12 -43 -2 -15 6 -30 12
-33 13 -3 1 -61 20 -130 42 -158 52 -449 113 -560 119 -47 2 -101 7 -120 11
-19 3 -47 6 -62 5 -16 0 -116 -1 -224 -1 -152 -1 -195 -4 -192 -13 3 -9 29
-13 79 -14 146 -3 224 -17 215 -40 -4 -11 5 -14 39 -14 24 0 47 5 51 11 6 11
26 10 152 -3 6 -1 12 -4 12 -7 0 -3 16 -6 36 -6 29 1 39 6 45 23 5 12 17 22
28 22 23 0 30 -9 33 -43 1 -14 7 -23 14 -20 7 2 15 0 18 -5 3 -5 17 -7 31 -4
15 2 25 0 25 -7 0 -6 7 -11 15 -11 8 0 14 3 14 8 -4 24 3 43 13 40 15 -5 17
-40 4 -50 -5 -3 10 -12 34 -19 39 -12 41 -14 19 -19 -14 -4 -23 -13 -23 -23 1
-9 -5 -17 -13 -17 -8 0 -12 4 -9 9 6 9 -22 25 -39 22 -5 -1 -1 5 9 14 24 19
15 30 -13 16 -22 -12 -81 -3 -61 9 8 5 7 9 -4 13 -10 4 -16 1 -16 -8 0 -9 -6
-12 -17 -8 -11 4 -14 3 -9 -5 4 -7 2 -12 -4 -12 -7 0 -9 8 -5 21 7 21 6 22
-60 15 -45 -5 -65 -3 -60 4 8 13 -1 13 -27 -1 -18 -10 -20 -9 -14 6 5 15 4 16
-9 5 -21 -18 -19 -40 5 -40 11 0 20 -4 20 -10 0 -5 7 -10 17 -10 9 0 13 -3 10
-6 -3 -4 -22 1 -41 10 -19 9 -41 16 -50 16 -20 0 -21 29 -1 36 8 4 12 10 9 15
-3 5 0 9 7 9 7 0 9 3 6 7 -11 10 -97 11 -91 1 3 -5 11 -8 17 -7 28 3 51 -2 41
-9 -7 -4 -13 -16 -15 -26 -5 -27 -28 -32 -26 -7 1 12 6 21 11 21 5 0 7 2 4 5
-3 3 -18 0 -32 -7 -22 -9 -29 -9 -35 1 -6 10 -10 9 -15 -4 -4 -11 -12 -14 -27
-10 -12 4 -19 3 -16 -2 3 -5 -8 -10 -24 -11 -16 -1 -29 2 -29 7 0 5 10 7 23 5
12 -2 7 2 -12 8 -25 9 -38 9 -52 0 -10 -7 -19 -8 -19 -3 0 5 -3 17 -6 25 -5
12 -2 15 12 10 15 -5 16 -4 5 4 -19 13 -46 3 -32 -11 20 -20 11 -25 -50 -25
-34 0 -56 3 -50 7 8 5 8 12 -2 24 -9 13 -16 14 -27 6 -13 -9 -12 -10 3 -5 11
4 16 2 12 -5 -4 -6 -13 -8 -20 -5 -7 2 -16 2 -19 -2 -10 -9 -46 -13 -46 -4 0
4 6 14 13 21 10 11 8 11 -10 0 -12 -7 -19 -17 -17 -21 3 -4 -1 -8 -8 -9 -7 0
1 -7 17 -14 17 -7 32 -9 35 -5 3 5 12 5 20 -1 12 -7 11 -10 -7 -15 -38 -11
-14 -32 51 -44 34 -6 69 -16 77 -21 20 -13 5 -11 -89 10 -102 22 -169 26 -449
26 -215 0 -255 5 -145 20 28 4 52 11 52 16 0 5 -4 10 -10 10 -5 1 -15 2 -21 3
-6 0 -17 10 -26 21 -15 20 -15 20 -8 -3 3 -12 3 -21 -2 -20 -4 1 -19 -2 -32
-6 -16 -5 -26 -4 -31 4 -12 19 -153 8 -175 -13 -20 -21 -49 -22 -68 -2 -12 11
-22 12 -44 5 -15 -6 -81 -21 -146 -35 -65 -13 -138 -33 -161 -44 -23 -12 -48
-21 -54 -21 -7 0 -12 -4 -12 -8 0 -5 -26 -15 -57 -22 -91 -20 -384 -178 -415
-224 -4 -6 -8 -7 -8 -2 0 6 -7 1 -15 -10 -8 -10 -15 -15 -15 -11 0 4 -11 -3
-24 -17 -13 -15 -26 -26 -30 -26 -3 0 -18 -10 -32 -22 -41 -35 -101 -99 -199
-213 -53 -62 -138 -272 -149 -371 -4 -32 -9 -72 -13 -89 -5 -29 -6 -29 -14 -7
-10 26 -13 220 -4 243 3 8 7 35 8 60 2 25 7 51 12 58 5 9 4 12 -3 7 -6 -3 -12
-1 -15 6 -2 7 -3 5 -2 -4 2 -10 -5 -20 -14 -23 -10 -3 -25 -32 -38 -77 -30
-100 -33 -115 -43 -260 -9 -125 -2 -215 20 -274 12 -30 12 -34 3 -34 -9 0 -36
52 -103 193 -45 93 -63 110 -54 50 5 -39 10 -55 43 -160 29 -93 0 -81 -46 20
-53 112 -57 135 -58 284 0 104 -3 143 -12 143 -19 0 -21 -10 -23 -145 -3 -142
6 -204 39 -278 11 -27 21 -53 21 -57 0 -17 74 -136 137 -220 75 -99 187 -191
308 -253 44 -22 86 -42 94 -43 18 -3 60 -54 61 -73 0 -11 -3 -11 -15 -1 -13
11 -14 10 -9 -3 4 -12 0 -15 -15 -14 -22 1 -30 17 -9 17 30 0 -5 12 -45 15
-31 2 -49 -1 -58 -11 -26 -31 -77 -4 -66 36 4 15 -1 22 -19 26 -13 3 -24 10
-24 15 0 5 -9 9 -20 9 -11 0 -20 5 -20 10 0 6 -5 10 -11 10 -6 0 -18 7 -27 16
-59 55 -102 99 -102 106 0 4 -7 8 -15 8 -9 0 -18 6 -21 14 -6 16 -87 76 -103
76 -6 0 -11 -5 -11 -11 0 -27 105 -180 168 -244 70 -73 152 -147 152 -139 0 3
5 2 10 -1 8 -5 7 -11 -1 -21 -16 -19 -29 -18 -29 4 0 13 -2 14 -9 4 -7 -11
-16 -10 -49 7 -36 18 -58 32 -135 84 -11 6 -28 20 -39 29 -11 10 -25 15 -29
12 -5 -3 -9 -1 -9 4 0 11 -58 25 -70 17 -11 -7 0 -45 14 -45 6 0 25 -16 41
-36 37 -43 140 -124 159 -124 8 0 16 -6 19 -14 4 -10 -1 -12 -16 -9 -20 4 -20
3 3 -10 14 -9 27 -14 30 -12 3 2 7 -5 7 -16 1 -10 -3 -19 -8 -19 -6 0 -7 6 -3
13 4 7 3 9 -2 4 -5 -5 -9 -14 -9 -20 0 -7 -8 -12 -17 -12 -10 0 -17 -4 -16
-10 1 -5 8 -9 15 -7 6 1 17 -7 24 -19 10 -20 9 -21 -7 -15 -15 6 -16 5 -7 -5
10 -10 15 -10 27 0 11 10 19 9 35 -1 24 -15 28 -38 6 -38 -8 0 -15 -6 -16 -12
0 -7 -4 -3 -9 10 -5 12 -15 22 -21 22 -8 0 -8 -4 1 -15 7 -8 9 -15 4 -15 -4 0
-3 -5 2 -10 7 -7 19 -8 37 -1 17 7 27 7 27 1 0 -6 -6 -10 -12 -11 -7 0 -3 -5
10 -12 19 -8 25 -8 33 4 7 12 9 12 9 -1 0 -18 43 -35 113 -45 49 -7 61 -19 27
-30 -11 -3 -20 -12 -20 -18 0 -9 -2 -9 -8 0 -5 8 -41 15 -90 18 -53 3 -81 1
-77 -5 3 -6 -1 -10 -10 -10 -11 0 -15 5 -11 15 6 17 -34 31 -60 21 -23 -9 -5
-29 22 -23 13 2 21 0 18 -4 -2 -4 15 -13 38 -19 24 -6 61 -16 83 -22 22 -6 92
-18 155 -28 126 -20 150 -15 150 26 0 22 4 25 33 22 29 -3 32 -6 32 -35 l0
-33 60 -1 c91 -2 100 -3 105 -13 3 -5 -2 -10 -10 -12 -8 -1 -44 -7 -80 -13
-36 -6 -98 -11 -138 -11 -95 0 -313 20 -332 30 -9 5 -34 11 -57 15 -23 3 -74
17 -112 30 -39 13 -71 20 -71 15 0 -15 -40 -22 -55 -10 -8 7 -15 21 -15 31 0
11 -7 19 -15 19 -8 0 -46 15 -85 34 -38 19 -70 33 -70 30 0 -2 -21 10 -47 26
-26 17 -55 30 -66 30 -10 0 -16 4 -13 9 3 5 -1 11 -8 14 -8 3 -17 1 -20 -6 -2
-7 -8 -2 -12 11 -5 17 -12 22 -25 19 -11 -3 -17 -1 -13 4 3 5 -2 9 -10 9 -9 0
-16 6 -16 13 0 8 -20 24 -45 36 -25 12 -45 27 -45 32 0 5 -7 9 -15 9 -8 0 -14
5 -12 11 1 6 -4 14 -12 17 -9 3 -11 0 -6 -8 6 -9 3 -9 -14 -1 -19 10 -25 22
-23 42 1 3 -13 19 -31 35 -17 16 -26 22 -19 13 6 -9 8 -20 4 -24 -4 -5 -1 -5
7 0 10 6 12 4 7 -4 -5 -8 -19 -10 -39 -5 -31 6 -31 6 -16 -12 21 -25 30 -62
15 -67 -21 -7 -65 -1 -80 12 -12 10 -13 17 -4 35 6 11 16 24 22 28 8 6 7 8 -1
8 -6 0 -15 -4 -18 -10 -3 -5 -16 -9 -29 -8 -17 2 -22 7 -18 21 4 16 1 18 -16
13 -14 -5 -24 -1 -31 11 -9 16 -11 14 -17 -15 -4 -21 -10 -29 -14 -22 -4 7
-13 9 -19 6 -6 -4 -11 -3 -11 3 0 5 5 13 10 16 6 3 10 12 9 18 0 9 -2 9 -6 0
-6 -17 -35 -17 -52 0 -11 10 -12 9 -6 -3 8 -13 7 -13 -8 -1 -15 12 -16 16 -3
35 8 12 24 21 39 21 14 -1 23 3 20 8 -3 5 -15 7 -28 5 -18 -4 -21 -1 -17 14 2
10 8 15 13 12 5 -3 9 -1 9 4 0 10 -29 26 -41 24 -4 -1 -6 6 -5 16 1 13 -5 16
-24 12 -14 -2 -43 -4 -65 -5 -22 0 -44 -4 -48 -10 -5 -5 -5 1 -2 14 5 17 4 22
-6 19 -8 -3 -22 -1 -33 4 -12 7 -16 7 -12 0 3 -5 -3 -12 -13 -15 -12 -3 -22 1
-25 10 -3 8 -10 12 -15 9 -5 -3 -14 1 -21 9 -11 13 -10 14 5 8 15 -5 17 -3 11
13 -5 10 -9 25 -9 31 0 8 -9 10 -24 6 -22 -5 -24 -3 -21 23 2 23 8 29 28 29
22 0 25 -4 25 -37 1 -45 15 -63 54 -66 25 -2 28 1 24 18 -3 11 -10 17 -17 13
-6 -3 -8 -3 -4 2 4 4 0 14 -10 21 -16 13 -16 13 1 14 9 0 17 -4 17 -10 0 -5 7
-10 15 -10 13 0 14 4 5 20 -8 16 -17 19 -38 13 -24 -5 -25 -4 -14 9 10 13 10
17 -4 22 -9 3 -20 4 -25 0 -5 -3 -9 -1 -9 4 0 6 -9 8 -20 5 -14 -4 -20 0 -20
12 0 11 -5 15 -15 11 -9 -3 -24 3 -35 14 -19 19 -19 19 1 25 24 8 26 52 2 72
-10 8 -12 11 -4 7 10 -5 12 -3 7 5 -5 7 -15 10 -23 7 -10 -4 -13 -2 -10 8 6
14 -21 32 -31 21 -3 -3 0 -5 7 -5 8 0 10 -7 6 -19 -6 -21 20 -55 36 -46 5 4 5
-3 0 -17 -4 -13 -19 -28 -32 -35 -19 -10 -27 -9 -41 4 -10 9 -18 20 -18 26 0
5 8 1 18 -10 9 -10 14 -14 10 -8 -11 16 -6 53 7 49 5 -2 10 7 10 21 0 14 -3
25 -7 25 -5 0 -8 8 -8 18 0 13 -2 14 -9 3 -5 -8 -11 -9 -15 -3 -3 5 0 12 8 15
15 6 11 47 -5 47 -5 0 -9 6 -9 14 0 8 -6 16 -12 19 -10 3 -9 8 2 22 9 11 10
16 2 11 -8 -5 -12 -1 -12 12 0 26 -26 48 -34 30 -3 -7 -4 -3 -2 10 3 18 -2 25
-21 33 -17 6 -23 14 -19 25 3 9 6 22 6 30 0 8 5 13 11 11 6 -1 14 4 16 11 3 6
0 12 -7 12 -6 0 -8 5 -5 10 3 6 -1 10 -9 10 -9 0 -16 9 -16 21 0 11 4 17 10
14 6 -3 7 1 4 9 -4 11 0 16 12 16 16 0 19 9 20 53 1 28 11 75 22 103 12 29 19
54 16 57 -3 3 -1 13 5 24 5 10 13 27 17 38 10 26 9 26 18 58 5 15 13 27 19 27
6 0 8 3 4 6 -11 11 54 150 141 304 60 104 216 318 330 450 109 128 378 384
522 499 85 69 163 135 173 148 19 24 51 31 62 13 4 -6 17 -2 33 10 59 45 423
279 512 330 52 29 115 65 140 80 107 62 370 185 370 172 0 -4 4 -2 8 4 11 16
71 44 66 30 -2 -6 -27 -22 -54 -35 -27 -13 -56 -32 -66 -42 -15 -17 -14 -17
22 2 21 10 44 19 51 19 18 0 163 73 163 82 0 4 -4 8 -10 8 -5 0 -10 -5 -10
-11 0 -6 -9 -9 -20 -6 -11 3 -20 1 -20 -4 0 -5 -4 -9 -10 -9 -23 0 -7 21 20
27 17 3 30 9 30 13 0 7 67 30 88 30 6 0 12 -6 15 -12 2 -7 3 -5 2 4 -3 15 44
38 109 53 10 2 28 10 40 18 11 7 30 13 41 12 11 0 24 5 28 10 5 6 7 0 4 -13
-5 -20 -2 -22 21 -18 15 2 35 5 45 5 9 1 17 8 17 17 0 11 -6 14 -20 9 -35 -11
-12 21 28 39 51 23 95 25 100 5 2 -11 -10 -20 -38 -29 -43 -14 -65 -33 -56
-49 6 -9 -69 -46 -91 -44 -7 0 -13 -3 -13 -7 0 -5 -10 -6 -22 -2 -13 3 -19 1
-15 -5 5 -7 -5 -10 -26 -9 -22 2 -36 -3 -46 -16 -9 -14 -16 -17 -24 -9 -16 16
-27 13 -21 -4 4 -8 1 -16 -5 -16 -11 -2 -25 -5 -38 -9 -5 -1 -12 -3 -18 -4 -5
-1 -71 -32 -146 -69 -76 -37 -139 -67 -142 -67 -12 0 -79 -32 -75 -36 3 -2 76
23 164 56 87 34 164 62 171 63 7 2 16 6 19 10 12 12 24 8 24 -7 0 -8 -12 -21
-27 -29 -16 -8 -111 -58 -213 -112 -191 -100 -208 -110 -197 -121 3 -4 73 24
154 61 186 84 229 99 237 79 6 -15 56 -20 56 -5 0 4 -11 6 -25 3 -14 -2 -25 0
-25 6 0 13 122 54 147 51 10 -2 34 5 53 14 19 9 76 31 125 48 50 17 140 50
200 74 61 24 121 46 135 50 14 4 32 13 40 20 16 14 198 90 215 90 6 0 16 6 24
13 7 7 19 11 27 8 7 -3 15 0 17 7 3 9 8 9 17 1 9 -9 -1 -16 -42 -30 -29 -10
-57 -19 -63 -19 -5 0 -13 -4 -16 -8 -3 -5 -12 -9 -20 -10 -30 -5 -39 -17 -29
-43 6 -14 10 -28 10 -30 0 -7 -90 -47 -114 -51 -10 -2 -37 -12 -60 -22 l-41
-19 34 3 c18 1 37 9 42 16 7 12 9 11 9 -1 0 -13 1 -13 10 0 5 8 10 11 10 7 0
-5 6 -5 12 -1 7 5 19 9 28 10 8 1 42 9 75 17 33 9 63 14 66 11 11 -6 39 7 34
16 -3 5 3 7 12 6 17 -3 80 16 148 44 17 7 40 14 53 16 13 1 39 12 58 23 37 22
339 127 460 160 55 14 75 16 84 8 10 -9 11 -9 6 0 -3 6 1 16 10 21 16 9 124
16 124 9z m1490 -47 c0 -13 -7 -20 -20 -20 -13 0 -20 7 -20 20 0 13 7 20 20
20 13 0 20 -7 20 -20z m-486 -16 c10 -26 7 -34 -11 -34 -28 0 -47 16 -40 34 8
21 43 21 51 0z m-3069 -29 c30 -29 31 -45 4 -79 -25 -32 -61 -34 -89 -4 -27
30 -25 62 6 87 34 27 50 26 79 -4z m1275 -10 c0 -8 -4 -15 -8 -15 -5 0 -9 7
-9 15 0 8 4 15 9 15 4 0 8 -7 8 -15z m1731 -7 c1 -7 1 -17 0 -21 -1 -5 8 -6
19 -2 11 3 20 2 20 -3 0 -5 -16 -13 -36 -16 -44 -9 -68 7 -53 35 11 21 48 26
50 7z m137 4 c8 -6 -3 -9 -30 -10 -31 -1 -39 1 -28 8 18 12 41 12 58 2z
m-4269 -26 c18 -21 -3 -56 -34 -56 -29 0 -39 14 -31 46 7 28 46 33 65 10z
m3079 -14 c6 -18 -15 -14 -22 4 -4 10 -1 14 6 12 6 -2 14 -10 16 -16z m49 12
c-3 -3 -12 -4 -19 -1 -8 3 -5 6 6 6 11 1 17 -2 13 -5z m2051 -33 c-5 -24 -48
-27 -48 -3 0 25 7 31 31 25 12 -3 19 -12 17 -22z m-2823 -11 c3 -5 -1 -10 -10
-10 -9 0 -13 5 -10 10 3 6 8 10 10 10 2 0 7 -4 10 -10z m-1888 -16 c8 -21 -13
-42 -28 -27 -13 13 -5 43 11 43 6 0 13 -7 17 -16z m1243 6 c0 -5 -2 -10 -4
-10 -3 0 -8 5 -11 10 -3 6 -1 10 4 10 6 0 11 -4 11 -10z m2595 0 c4 -6 -5 -10
-19 -10 -14 0 -26 5 -26 10 0 6 9 10 19 10 11 0 23 -4 26 -10z m-2625 -9 c0
-5 -6 -14 -14 -20 -16 -13 -32 2 -21 19 8 12 35 13 35 1z m2800 -1 c0 -5 -7
-10 -15 -10 -8 0 -15 5 -15 10 0 6 7 10 15 10 8 0 15 -4 15 -10z m970 -20 c0
-5 -4 -10 -10 -10 -5 0 -10 5 -10 10 0 6 5 10 10 10 6 0 10 -4 10 -10z m-4552
-42 c17 -17 15 -58 -4 -65 -36 -13 -68 33 -44 62 15 18 32 19 48 3z m-740 -44
c29 -20 30 -76 2 -104 -45 -45 -120 -14 -120 50 0 62 65 92 118 54z m4887 -27
c17 0 39 3 50 7 16 6 17 6 5 -3 -11 -8 -12 -11 -2 -11 7 0 10 -5 6 -11 -4 -7
-24 -9 -50 -6 -24 2 -44 1 -44 -4 0 -5 -13 -9 -30 -9 -26 0 -30 4 -30 26 0 24
2 26 33 19 17 -4 46 -7 62 -8z m-3680 -46 c3 -5 2 -12 -3 -15 -5 -3 -9 1 -9 9
0 17 3 19 12 6z m-1867 -33 c28 -28 1 -75 -37 -63 -11 3 -23 15 -26 26 -12 38
35 65 63 37z m250 -30 c19 -19 14 -56 -8 -68 -45 -24 -82 18 -53 59 16 23 43
27 61 9z m412 -138 c0 -5 -37 -33 -82 -64 -215 -146 -448 -324 -460 -352 -6
-13 -18 -24 -26 -24 -8 0 -52 -31 -97 -70 -93 -79 -466 -456 -510 -516 -16
-21 -52 -66 -80 -99 -28 -33 -69 -85 -91 -115 -69 -94 -144 -200 -144 -204 0
-16 -108 -184 -115 -179 -4 5 -5 3 -1 -4 7 -13 -23 -83 -36 -83 -4 0 -8 -6 -8
-12 0 -7 -7 -26 -16 -43 -9 -16 -16 -40 -15 -53 0 -12 -6 -25 -14 -28 -8 -4
-15 -13 -15 -21 0 -8 -6 -12 -12 -9 -7 3 -21 9 -31 12 -11 4 -16 13 -13 21 3
8 6 20 7 26 1 7 5 1 10 -13 7 -19 7 -14 4 19 -5 36 -3 42 10 38 8 -4 15 -2 15
3 0 6 -6 10 -12 10 -8 1 -6 6 5 14 10 8 17 18 15 22 -4 15 31 94 42 94 5 0 9
3 8 8 -3 11 35 82 44 82 4 0 8 4 8 10 0 16 100 180 169 275 107 149 228 292
376 446 126 130 190 189 418 387 63 55 311 246 376 290 209 143 229 154 259
144 6 -2 12 -8 12 -12z m-317 -31 c29 -16 37 -28 37 -61 0 -35 -40 -67 -75
-60 -60 11 -70 91 -15 119 31 15 27 15 53 2z m-278 -110 c0 -7 -8 -15 -17 -17
-18 -3 -25 18 -11 32 10 10 28 1 28 -15z m-300 -30 c4 -5 4 -21 1 -35 -5 -19
-12 -24 -28 -22 -26 4 -43 30 -35 52 7 18 52 22 62 5z m350 -89 c0 -22 -29
-18 -33 3 -3 14 1 18 15 15 10 -2 18 -10 18 -18z m-415 -255 c16 -19 10 -45
-15 -61 -39 -26 -86 31 -53 64 16 16 53 15 68 -3z m-163 -31 c7 -18 8 -16
-147 -196 -63 -73 -149 -177 -189 -231 -98 -129 -141 -164 -141 -114 0 28 5
36 172 243 151 187 266 314 286 314 7 0 15 -7 19 -16z m449 -119 c8 -20 -13
-45 -32 -38 -14 5 -19 34 -7 46 11 12 33 7 39 -8z m3464 -275 c0 -5 -4 -10 -9
-10 -6 0 -13 5 -16 10 -3 6 1 10 9 10 9 0 16 -4 16 -10z m-113 -66 c-3 -3 -12
-4 -19 -1 -8 3 -5 6 6 6 11 1 17 -2 13 -5z m165 -1 c-6 -2 -10 -9 -6 -14 3 -5
-2 -9 -10 -9 -9 0 -16 4 -16 9 0 10 18 19 35 19 6 0 4 -2 -3 -5z m488 -3 c0
-5 -4 -10 -10 -10 -5 0 -10 5 -10 10 0 6 5 10 10 10 6 0 10 -4 10 -10z m-801
-14 c10 -12 8 -13 -9 -9 -25 7 -37 23 -17 23 8 0 20 -6 26 -14z m831 -1 c0 -8
5 -15 10 -15 6 0 10 5 10 11 0 6 8 9 17 7 9 -2 16 -7 15 -13 -2 -13 -44 -15
-59 -3 -16 12 -17 28 -3 28 6 0 10 -7 10 -15z m-328 -2 c-6 -2 -9 -10 -6 -15
4 -7 2 -8 -5 -4 -13 9 -5 26 12 25 9 0 8 -2 -1 -6z m-322 -19 c0 -2 -9 -4 -21
-4 -11 0 -18 4 -14 10 5 8 35 3 35 -6z m757 8 c15 -9 5 -26 -21 -35 -17 -7
-17 -6 -5 10 13 15 12 16 -6 9 -11 -5 -29 -10 -40 -12 -18 -4 -18 -3 1 5 12 5
25 14 29 20 7 13 25 14 42 3z m418 -1 c3 -5 -3 -12 -12 -14 -15 -4 -15 -5 2
-6 11 0 27 -10 35 -21 14 -20 37 -29 25 -10 -3 6 -2 10 4 10 5 0 13 -9 16 -20
3 -11 11 -20 16 -20 6 0 7 5 4 10 -3 6 -1 10 4 10 6 0 11 -7 11 -15 0 -21 40
-41 50 -25 5 9 9 9 14 1 4 -6 1 -11 -6 -11 -11 0 -11 -2 0 -9 10 -6 10 -10 -3
-21 -13 -10 -15 -9 -15 6 0 16 -2 17 -10 4 -9 -14 -15 -7 -11 14 1 5 -4 4 -11
-2 -15 -12 -44 0 -35 14 3 5 -2 15 -10 23 -13 12 -14 11 -8 -8 6 -21 5 -22
-14 -11 -12 6 -19 15 -16 20 3 4 -4 6 -15 3 -16 -4 -19 -2 -14 11 3 9 1 16 -5
16 -6 0 -11 -5 -11 -10 0 -6 -14 -3 -32 6 l-32 17 28 23 c29 26 42 29 51 15z
m-989 -14 c4 -4 -2 -7 -14 -7 -12 0 -22 4 -22 9 0 10 26 9 36 -2z m179 -7 c-3
-5 -12 -7 -20 -3 -21 7 -19 13 6 13 11 0 18 -4 14 -10z m145 6 c0 -2 -7 -7
-16 -10 -8 -3 -12 -2 -9 4 6 10 25 14 25 6z m-396 -14 c3 -5 -1 -9 -9 -9 -8 0
-12 4 -9 9 3 4 7 8 9 8 2 0 6 -4 9 -8z m539 -7 c-3 -9 -8 -14 -10 -11 -3 3 -2
9 2 15 9 16 15 13 8 -4z m197 -3 c0 -4 -19 -8 -42 -9 -32 -1 -38 1 -23 7 26
11 65 12 65 2z m-683 -8 c-3 -3 -12 -4 -19 -1 -8 3 -5 6 6 6 11 1 17 -2 13 -5z
m68 -4 c-3 -5 -15 -10 -25 -10 -10 0 -22 5 -25 10 -4 6 7 10 25 10 18 0 29 -4
25 -10z m72 4 c-3 -3 -12 -4 -19 -1 -8 3 -5 6 6 6 11 1 17 -2 13 -5z m63 -4
c0 -5 -4 -10 -10 -10 -5 0 -10 5 -10 10 0 6 5 10 10 10 6 0 10 -4 10 -10z m30
0 c0 -5 -2 -10 -4 -10 -3 0 -8 5 -11 10 -3 6 -1 10 4 10 6 0 11 -4 11 -10z
m43 -5 c-3 -9 -8 -14 -10 -11 -3 3 -2 9 2 15 9 16 15 13 8 -4z m267 4 c0 -4
-11 -6 -25 -6 -14 0 -25 3 -25 8 0 5 11 8 25 7 14 -1 25 -5 25 -9z m170 1 c0
-5 -5 -10 -11 -10 -5 0 -7 5 -4 10 3 6 8 10 11 10 2 0 4 -4 4 -10z m-2101 -13
l32 -14 -58 -16 c-32 -9 -85 -22 -118 -29 -33 -6 -67 -13 -75 -15 -8 -2 -24
-5 -35 -7 -11 -2 -28 -7 -39 -11 -11 -5 -22 -3 -28 6 -8 11 -9 10 -4 -3 4 -12
0 -18 -12 -19 -10 0 -12 -3 -4 -6 21 -8 13 -21 -12 -19 -18 1 -22 4 -14 14 7
8 7 12 0 12 -6 0 -14 -4 -17 -10 -3 -5 -11 -10 -16 -10 -6 0 3 12 20 26 17 14
31 32 31 40 0 8 5 14 11 14 5 0 7 -5 3 -11 -10 -17 56 -4 138 27 37 14 89 29
115 34 27 4 49 8 49 9 1 0 16 -5 33 -12z m2071 -4 c0 -2 -8 -3 -17 -1 -10 1
-24 -1 -30 -5 -7 -5 -13 -4 -13 2 0 5 6 11 13 14 13 4 47 -3 47 -10z m70 7 c0
-5 -8 -10 -17 -10 -15 0 -16 2 -3 10 19 12 20 12 20 0z m-427 -7 c-7 -2 -19
-2 -25 0 -7 3 -2 5 12 5 14 0 19 -2 13 -5z m467 -9 c0 -2 -7 -4 -15 -4 -8 0
-15 4 -15 10 0 5 7 7 15 4 8 -4 15 -8 15 -10z m-990 -4 c0 -5 -7 -7 -15 -4 -8
4 -15 8 -15 10 0 2 7 4 15 4 8 0 15 -4 15 -10z m364 -18 c-22 -5 -31 7 -14 18
9 6 17 5 22 -3 4 -7 1 -13 -8 -15z m576 14 c0 -3 -4 -8 -10 -11 -5 -3 -10 -1
-10 4 0 6 5 11 10 11 6 0 10 -2 10 -4z m407 -2 c-3 -3 -12 -4 -19 -1 -8 3 -5
6 6 6 11 1 17 -2 13 -5z m-246 -24 c24 -20 24 -20 4 -35 -27 -22 -59 -15 -63
13 -2 12 -11 22 -20 23 -11 1 -7 4 8 9 39 12 46 11 71 -10z m359 -9 c0 -5 -7
-11 -15 -15 -8 -3 -15 -10 -15 -16 0 -5 7 -10 15 -10 8 0 15 -6 15 -12 0 -10
2 -10 8 -1 12 19 52 4 53 -21 1 -17 2 -17 6 -3 2 9 8 17 13 17 13 0 20 -28 7
-33 -7 -3 3 -5 21 -4 37 0 39 4 15 23 -10 7 -13 14 -6 14 6 0 19 -10 28 -22 8
-13 19 -22 23 -20 4 1 8 -5 10 -15 3 -18 43 -42 71 -44 11 0 10 -3 -4 -9 -19
-8 -19 -9 0 -9 13 -1 16 -4 9 -11 -12 -12 -47 -2 -38 11 3 5 -1 6 -8 4 -8 -3
-24 6 -37 21 -18 20 -25 24 -31 13 -7 -10 -17 -7 -47 13 -57 38 -134 78 -149
78 -11 0 -13 -28 -8 -152 6 -184 14 -215 60 -234 36 -15 217 -34 329 -34 45 0
66 -3 59 -10 -5 -5 -86 -11 -179 -13 -174 -4 -220 -13 -232 -44 -4 -10 -13
-24 -20 -31 -9 -9 -13 -50 -14 -135 -1 -67 -5 -135 -9 -152 l-8 -30 -1 31 c-1
20 -7 34 -18 38 -14 6 -15 9 -4 15 10 7 12 34 10 119 -4 93 -8 115 -25 138
-29 39 -57 45 -244 51 -91 3 -169 8 -173 13 -4 4 56 10 133 13 78 4 171 12
206 18 90 16 95 24 105 207 5 81 10 162 12 180 2 17 -1 32 -6 32 -5 0 -4 7 3
15 14 17 35 21 25 5 -9 -15 4 -12 21 5 17 17 34 20 34 6z m-5345 -17 c19 -20
16 -43 -7 -58 -21 -13 -51 2 -56 26 -3 16 23 48 38 48 5 0 16 -7 25 -16z
m2555 -14 c0 -5 -2 -10 -4 -10 -3 0 -8 5 -11 10 -3 6 -1 10 4 10 6 0 11 -4 11
-10z m2505 0 c3 -5 2 -10 -4 -10 -5 0 -13 5 -16 10 -3 6 -2 10 4 10 5 0 13 -4
16 -10z m-830 -18 c-3 -3 -11 0 -18 7 -9 10 -8 11 6 5 10 -3 15 -9 12 -12z
m1200 0 c-3 -3 -11 0 -18 7 -9 10 -8 11 6 5 10 -3 15 -9 12 -12z m-3295 -82
c0 -5 -5 -10 -11 -10 -5 0 -7 5 -4 10 3 6 8 10 11 10 2 0 4 -4 4 -10z m2245
-90 c3 -5 1 -10 -4 -10 -6 0 -11 5 -11 10 0 6 2 10 4 10 3 0 8 -4 11 -10z
m763 -17 c5 -17 -26 -29 -40 -15 -6 6 -7 15 -3 22 9 14 37 9 43 -7z m-688 -9
c0 -2 -7 -4 -15 -4 -8 0 -15 4 -15 10 0 5 7 7 15 4 8 -4 15 -8 15 -10z m-5
-34 c3 -5 2 -10 -4 -10 -5 0 -13 5 -16 10 -3 6 -2 10 4 10 5 0 13 -4 16 -10z
m85 -3 c0 4 5 2 12 -5 9 -9 9 -15 0 -24 -9 -9 -13 -7 -18 5 -3 9 -12 17 -20
17 -8 0 -14 5 -14 10 0 7 6 7 20 0 11 -6 20 -7 20 -3z m640 3 c0 -5 -4 -10
-10 -10 -5 0 -10 5 -10 10 0 6 5 10 10 10 6 0 10 -4 10 -10z m-679 -25 c5 3 6
-1 2 -11 -6 -16 -7 -15 -20 2 -7 10 -13 23 -13 28 0 6 5 3 11 -7 6 -9 14 -15
20 -12z m-4581 -2 c0 -5 -5 -15 -10 -23 -7 -11 -12 -12 -21 -3 -6 6 -8 16 -5
22 8 12 36 15 36 4z m5978 -26 c2 -12 -3 -17 -17 -17 -15 0 -21 6 -21 21 0 25
33 22 38 -4z m-2348 -7 c568 -91 907 -412 937 -887 20 -332 -112 -549 -487
-798 -267 -177 -377 -304 -450 -519 -17 -48 -30 -94 -30 -102 0 -12 -34 -14
-222 -12 l-223 3 -32 95 c-42 128 -57 234 -50 367 13 260 127 443 390 623 157
106 207 171 207 265 0 41 -31 104 -67 138 -63 59 -218 89 -352 68 -216 -34
-300 -151 -301 -423 0 -178 -112 -291 -316 -319 -203 -27 -384 49 -445 187
-66 149 -65 446 3 654 100 310 354 531 715 625 80 21 128 29 293 49 58 7 361
-3 430 -14z m1064 -5 c17 -13 18 -15 3 -15 -9 0 -17 4 -17 9 0 5 -8 12 -17 14
-13 3 -14 5 -3 6 8 0 24 -6 34 -14z m44 -20 c-3 -3 -9 2 -12 12 -6 14 -5 15 5
6 7 -7 10 -15 7 -18z m-48 -48 c0 -9 -56 19 -65 33 -4 6 10 2 29 -7 20 -10 36
-21 36 -26z m110 33 c0 -5 -5 -10 -11 -10 -5 0 -7 5 -4 10 3 6 8 10 11 10 2 0
4 -4 4 -10z m-4880 -10 c0 -5 -5 -10 -11 -10 -5 0 -7 5 -4 10 3 6 8 10 11 10
2 0 4 -4 4 -10z m1989 -4 c9 -10 8 -16 -4 -26 -19 -16 -41 1 -32 24 8 20 21
20 36 2z m186 4 c-3 -5 -10 -10 -16 -10 -5 0 -9 5 -9 10 0 6 7 10 16 10 8 0
12 -4 9 -10z m2745 -15 c7 -8 9 -15 6 -15 -4 0 -14 7 -22 15 -9 8 -11 15 -6
15 5 0 15 -7 22 -15z m-83 -27 c15 -6 31 -11 36 -10 4 1 7 -2 7 -6 0 -4 15
-13 33 -20 35 -13 87 -56 87 -73 0 -6 -22 2 -49 18 -27 15 -47 31 -44 37 3 5
1 6 -4 3 -9 -6 -123 49 -123 59 0 8 29 4 57 -8z m-4857 -8 c0 -22 -36 -68 -48
-61 -9 5 -6 15 12 34 13 14 21 28 18 31 -3 3 0 6 6 6 7 0 12 -4 12 -10z m1975
-80 c0 -18 -6 -26 -22 -28 -18 -3 -23 1 -23 21 0 28 9 39 30 35 9 -2 15 -14
15 -28z m-2500 10 c3 -5 -1 -10 -9 -10 -9 0 -16 5 -16 10 0 6 4 10 9 10 6 0
13 -4 16 -10z m479 -21 c-3 -5 -10 -7 -15 -3 -5 3 -7 10 -3 15 3 5 10 7 15 3
5 -3 7 -10 3 -15z m6310 -73 c73 -114 106 -211 106 -310 0 -68 -38 -246 -71
-331 -63 -164 -155 -335 -281 -519 -52 -77 -141 -176 -158 -176 -29 0 -9 41
103 208 271 405 302 480 324 790 4 56 2 87 -6 95 -6 6 -11 20 -11 31 0 34 -51
170 -77 204 -22 29 -24 38 -14 58 9 21 14 23 31 14 11 -6 35 -35 54 -64z
m-6324 38 c0 -8 -5 -12 -10 -9 -6 4 -8 11 -5 16 9 14 15 11 15 -7z m-20 -35
c0 -11 -4 -18 -10 -14 -5 3 -7 12 -3 20 7 21 13 19 13 -6z m6074 -11 c16 -26
-4 -53 -40 -53 -23 0 -30 5 -32 23 -7 47 47 69 72 30z m-6414 -4 c0 -8 -4 -12
-10 -9 -5 3 -10 10 -10 16 0 5 5 9 10 9 6 0 10 -7 10 -16z m2200 -9 c16 -19 6
-45 -18 -45 -28 0 -43 20 -31 42 12 22 32 23 49 3z m90 -10 c16 -19 3 -55 -19
-55 -29 0 -44 25 -31 49 13 25 33 27 50 6z m-1966 -10 c-4 -8 -8 -15 -10 -15
-2 0 -4 7 -4 15 0 8 4 15 10 15 5 0 7 -7 4 -15z m5114 -4 c8 -4 12 -19 10 -32
-2 -19 -9 -24 -33 -24 -24 0 -31 5 -33 24 -4 23 11 41 33 41 6 0 16 -4 23 -9z
m-5508 -21 c0 -5 -4 -10 -9 -10 -6 0 -13 5 -16 10 -3 6 1 10 9 10 9 0 16 -4
16 -10z m-50 -10 c0 -5 -4 -10 -10 -10 -5 0 -10 5 -10 10 0 6 5 10 10 10 6 0
10 -4 10 -10z m5645 -50 c0 -31 -33 -40 -52 -14 -16 22 1 46 31 42 15 -2 21
-10 21 -28z m-5435 -15 c0 -21 -23 -24 -44 -6 -17 14 -16 11 3 -16 17 -25 20
-37 12 -51 -6 -11 -7 -22 -4 -26 3 -3 1 -6 -5 -6 -6 0 -14 9 -17 20 -3 11 -11
20 -17 20 -6 0 -4 8 5 18 10 11 13 22 7 32 -10 16 -3 33 10 25 4 -3 11 2 14
11 5 13 9 14 21 4 8 -7 15 -18 15 -25z m210 19 c0 -8 -5 -12 -10 -9 -6 4 -8
11 -5 16 9 14 15 11 15 -7z m5641 -7 c-1 -12 -15 -9 -19 4 -3 6 1 10 8 8 6 -3
11 -8 11 -12z m344 -32 c0 -35 -31 -47 -51 -20 -18 25 0 57 29 53 17 -2 22
-10 22 -33z m-5995 5 c0 -5 -5 -10 -11 -10 -5 0 -7 5 -4 10 3 6 8 10 11 10 2
0 4 -4 4 -10z m6273 -42 c14 -21 -7 -48 -38 -48 -28 0 -39 24 -24 51 12 24 47
22 62 -3z m-6288 -35 c-11 -80 -16 -102 -27 -109 -6 -4 -9 -1 -6 7 3 8 -5 18
-16 24 -29 15 -32 51 -6 65 11 6 25 22 30 36 17 43 32 28 25 -23z m-400 -13
c-3 -5 -13 -10 -21 -10 -8 0 -14 5 -14 10 0 6 9 10 21 10 11 0 17 -4 14 -10z
m163 -9 c10 -6 8 -10 -10 -15 -22 -6 -23 -7 -4 -21 11 -8 15 -15 9 -15 -17 0
-36 27 -23 35 6 3 8 11 5 16 -8 11 6 12 23 0z m-304 -17 c22 -21 3 -56 -27
-52 -28 4 -35 38 -11 55 22 16 19 16 38 -3z m6751 -24 c0 -8 -10 -16 -22 -18
-22 -3 -32 16 -16 32 12 11 38 2 38 -14z m-631 1 c3 -4 -1 -17 -9 -27 -10 -15
-16 -16 -26 -7 -6 6 -9 19 -6 27 7 17 32 22 41 7z m-3544 -11 c0 -5 -5 -10
-11 -10 -5 0 -7 5 -4 10 3 6 8 10 11 10 2 0 4 -4 4 -10z m-2311 -23 c8 -10 7
-19 -3 -32 -12 -16 -16 -17 -30 -6 -12 10 -13 18 -5 32 12 22 22 24 38 6z
m6178 -3 c7 -20 -22 -45 -43 -37 -14 5 -19 35 -7 46 12 13 44 7 50 -9z m-4023
-45 c-5 -8 1 -10 19 -5 33 8 62 -26 46 -56 -12 -22 -31 -23 -69 -3 -29 15 -31
31 -7 63 12 15 21 16 11 1z m-2124 -9 c0 -5 -7 -10 -16 -10 -8 0 -12 5 -9 10
3 6 10 10 16 10 5 0 9 -4 9 -10z m-30 -30 c0 -5 -7 -10 -16 -10 -8 0 -12 5 -9
10 3 6 10 10 16 10 5 0 9 -4 9 -10z m6354 -22 c8 -14 7 -22 -6 -35 -14 -14
-22 -15 -43 -5 -27 13 -32 31 -13 50 17 17 48 11 62 -10z m-670 -4 c19 -19 4
-57 -21 -52 -26 5 -39 34 -24 52 17 20 26 20 45 0z m-5753 -87 c-8 -8 -11 2
-10 34 l1 44 10 -34 c6 -23 6 -37 -1 -44z m6327 40 c2 -10 -3 -17 -12 -17 -18
0 -29 16 -21 31 9 14 29 6 33 -14z m-6528 -31 c0 -8 -5 -18 -11 -22 -14 -8
-33 11 -25 25 10 16 36 13 36 -3z m260 -43 c0 -8 -4 -11 -10 -8 -5 3 -10 1
-10 -4 0 -6 10 -11 22 -11 27 0 58 -27 58 -51 0 -25 -39 -50 -60 -39 -12 7
-16 19 -14 45 1 19 -2 35 -7 35 -5 0 -9 13 -9 30 0 22 4 28 15 24 8 -4 15 -13
15 -21z m220 17 c0 -5 -4 -10 -10 -10 -5 0 -10 5 -10 10 0 6 5 10 10 10 6 0
10 -4 10 -10z m36 -29 c-6 -9 22 -26 37 -23 15 4 -18 -38 -35 -44 -25 -8 -58
17 -56 42 1 13 6 20 10 18 4 -3 4 -12 1 -22 -7 -18 -5 -17 17 12 10 13 10 17
3 12 -7 -4 -13 -2 -13 3 0 6 9 11 21 11 11 0 18 -4 15 -9z m5749 0 c7 -12 -12
-24 -25 -16 -11 7 -4 25 10 25 5 0 11 -4 15 -9z m-3788 -23 c-3 -8 -6 -5 -6 6
-1 11 2 17 5 13 3 -3 4 -12 1 -19z m-2073 -14 c5 -14 4 -15 -9 -4 -17 14 -19
20 -6 20 5 0 12 -7 15 -16z m2056 6 c0 -5 -4 -10 -10 -10 -5 0 -10 5 -10 10 0
6 5 10 10 10 6 0 10 -4 10 -10z m3470 -30 c0 -13 -7 -20 -20 -20 -13 0 -20 7
-20 20 0 13 7 20 20 20 13 0 20 -7 20 -20z m-5334 -12 c-1 -28 -18 -33 -33 -8
-11 16 -10 18 1 14 8 -3 17 -1 21 5 9 16 12 13 11 -11z m5243 5 c20 -37 -27
-71 -57 -41 -16 16 -15 23 4 42 20 21 41 20 53 -1z m-5639 3 c0 -3 -4 -8 -10
-11 -5 -3 -10 -1 -10 4 0 6 5 11 10 11 6 0 10 -2 10 -4z m290 -32 c0 -13 -4
-24 -9 -24 -11 0 -19 30 -14 48 7 20 23 3 23 -24z m1910 -4 c0 -5 -4 -10 -10
-10 -5 0 -10 5 -10 10 0 6 5 10 10 10 6 0 10 -4 10 -10z m-2187 -15 c-3 -9 -8
-14 -10 -11 -3 3 -2 9 2 15 9 16 15 13 8 -4z m33 -31 c-19 -19 -21 -11 -4 16
7 11 14 16 16 10 2 -5 -4 -17 -12 -26z m-56 16 c0 -5 -4 -10 -10 -10 -5 0 -10
5 -10 10 0 6 5 10 10 10 6 0 10 -4 10 -10z m2295 0 c3 -5 1 -10 -4 -10 -6 0
-11 5 -11 10 0 6 2 10 4 10 3 0 8 -4 11 -10z m-159 -15 c8 -20 -13 -45 -38
-45 -21 0 -33 22 -24 45 7 20 55 19 62 0z m194 -9 c0 -3 -4 -8 -10 -11 -5 -3
-10 -1 -10 4 0 6 5 11 10 11 6 0 10 -2 10 -4z m-2295 -16 c3 -5 1 -10 -4 -10
-6 0 -11 5 -11 10 0 6 2 10 4 10 3 0 8 -4 11 -10z m325 6 c0 -2 -7 -9 -15 -16
-13 -11 -14 -10 -9 4 5 14 24 23 24 12z m1840 -8 c0 -7 3 -23 6 -36 5 -17 3
-21 -9 -16 -19 7 -28 29 -21 49 7 18 24 20 24 3z m100 -19 c0 -6 -4 -7 -10 -4
-5 3 -10 11 -10 16 0 6 5 7 10 4 6 -3 10 -11 10 -16z m3926 6 c7 -18 -13 -45
-33 -45 -17 0 -27 24 -19 45 7 20 45 19 52 0z m-269 -11 c9 -23 -13 -40 -32
-24 -12 10 -13 16 -4 26 15 18 28 18 36 -2z m-5960 -26 c-3 -8 -6 -5 -6 6 -1
11 2 17 5 13 3 -3 4 -12 1 -19z m93 1 c0 -5 -4 -9 -10 -9 -5 0 -10 7 -10 16 0
8 5 12 10 9 6 -3 10 -10 10 -16z m219 -15 c-16 -20 -29 -17 -29 5 0 14 5 18
20 14 16 -4 18 -8 9 -19z m2001 16 c0 -5 -2 -10 -4 -10 -3 0 -8 5 -11 10 -3 6
-1 10 4 10 6 0 11 -4 11 -10z m-1910 -15 c15 -18 6 -45 -15 -45 -18 0 -30 24
-21 45 7 19 20 19 36 0z m-345 -5 c3 -5 1 -10 -4 -10 -6 0 -11 5 -11 10 0 6 2
10 4 10 3 0 8 -4 11 -10z m-25 -30 c0 -5 -4 -10 -10 -10 -5 0 -10 5 -10 10 0
6 5 10 10 10 6 0 10 -4 10 -10z m5725 -3 c26 -20 13 -67 -18 -67 -43 0 -60 35
-31 64 19 19 25 20 49 3z m-3495 -7 c0 -5 -2 -10 -4 -10 -3 0 -8 5 -11 10 -3
6 -1 10 4 10 6 0 11 -4 11 -10z m3934 -12 c-14 -46 -91 -164 -141 -216 -34
-35 -64 -82 -59 -91 10 -16 -6 -42 -25 -39 -12 2 -49 -30 -111 -94 l-93 -97
29 -13 c16 -7 34 -20 39 -29 15 -24 0 -67 -29 -86 -24 -15 -29 -15 -53 -2 -14
8 -30 25 -36 37 -5 12 -13 21 -16 20 -4 -2 -91 -76 -194 -166 -103 -89 -195
-166 -203 -171 -11 -6 -12 -13 -3 -29 21 -39 13 -91 -18 -123 -35 -34 -60 -36
-111 -8 l-37 21 -84 -62 c-46 -34 -109 -78 -139 -98 -30 -20 -71 -49 -90 -64
-41 -31 -137 -88 -149 -88 -6 0 -31 43 -31 54 0 2 52 36 116 77 166 107 358
241 363 253 9 23 70 76 88 76 35 0 455 357 495 422 10 16 23 28 29 28 16 0
156 136 264 255 42 47 131 164 166 217 27 42 44 50 33 16z m-6526 0 c18 -18
14 -56 -7 -68 -39 -20 -68 11 -51 55 10 27 38 33 58 13z m400 -10 c-2 -12 -8
-23 -14 -25 -7 -2 -10 6 -7 22 6 30 26 34 21 3z m262 1 c0 -6 -4 -7 -10 -4 -5
3 -10 11 -10 16 0 6 5 7 10 4 6 -3 10 -11 10 -16z m1960 -9 c0 -5 -4 -10 -10
-10 -5 0 -10 5 -10 10 0 6 5 10 10 10 6 0 10 -4 10 -10z m-1915 -45 c0 -30
-39 -27 -43 3 -3 20 0 23 20 20 15 -2 23 -10 23 -23z m-365 0 c0 -8 -7 -15
-15 -15 -8 0 -15 7 -15 15 0 8 7 15 15 15 8 0 15 -7 15 -15z m430 -6 c0 -5 -4
-9 -10 -9 -5 0 -10 7 -10 16 0 8 5 12 10 9 6 -3 10 -10 10 -16z m1872 -3 c7 4
8 2 4 -5 -9 -14 -36 3 -36 23 0 6 5 3 11 -7 6 -9 15 -14 21 -11z m-2243 -5 c8
-5 9 -11 3 -15 -5 -3 -15 1 -22 9 -14 16 -3 20 19 6z m466 -12 c-10 -15 -25
-10 -19 6 4 8 10 12 15 9 5 -3 7 -10 4 -15z m5504 -6 c21 -38 -31 -72 -58 -39
-9 11 -10 20 -1 35 13 25 45 27 59 4z m-5764 -12 c-8 -14 -25 -14 -25 0 0 5 5
7 10 4 6 -3 10 -1 10 6 0 7 3 10 6 6 3 -3 3 -10 -1 -16z m307 -13 c-7 -7 -12
-21 -13 -32 0 -21 0 -21 -9 -1 -5 14 -3 24 8 33 20 15 30 16 14 0z m-477 -27
c3 -5 1 -12 -5 -16 -5 -3 -10 1 -10 9 0 18 6 21 15 7z m445 -17 c0 -8 7 -14
15 -14 19 0 20 -34 1 -49 -16 -13 -69 5 -60 21 3 5 0 17 -8 26 -12 15 -11 16
5 3 9 -7 18 -11 18 -7 1 3 3 11 4 16 1 6 3 15 4 21 2 15 21 0 21 -17z m-669 0
c17 -21 0 -49 -32 -49 -18 0 -25 6 -27 24 -6 38 34 55 59 25z m5699 6 c0 -5
-7 -10 -15 -10 -8 0 -15 5 -15 10 0 6 7 10 15 10 8 0 15 -4 15 -10z m-3215 -9
c3 -5 1 -12 -5 -16 -5 -3 -10 1 -10 9 0 18 6 21 15 7z m-2295 -21 c0 -5 -5
-10 -11 -10 -5 0 -7 5 -4 10 3 6 8 10 11 10 2 0 4 -4 4 -10z m390 0 c0 -5 -5
-10 -11 -10 -5 0 -7 5 -4 10 3 6 8 10 11 10 2 0 4 -4 4 -10z m5964 -3 c11 -8
17 -23 14 -38 -2 -19 -9 -24 -33 -24 -24 0 -31 5 -33 23 -3 22 13 52 27 52 4
0 15 -6 25 -13z m-6256 -40 c4 -20 -25 -34 -40 -19 -15 15 -1 44 19 40 10 -2
19 -11 21 -21z m-83 -7 c-3 -5 -1 -10 4 -10 6 0 11 -5 11 -11 0 -8 -5 -8 -15
1 -17 14 -20 30 -4 30 5 0 7 -4 4 -10z m435 0 c0 -5 -2 -10 -4 -10 -3 0 -8 5
-11 10 -3 6 -1 10 4 10 6 0 11 -4 11 -10z m-90 -20 c0 -5 -7 -10 -15 -10 -8 0
-15 5 -15 10 0 6 7 10 15 10 8 0 15 -4 15 -10z m213 -6 c4 -1 10 -2 14 -3 3 0
-2 -10 -12 -21 -9 -10 -15 -26 -12 -35 10 -24 -9 -18 -27 10 -19 29 -20 36 -3
33 7 -2 11 5 9 16 -2 13 0 16 10 10 7 -5 16 -9 21 -10z m-158 -19 c0 -12 -9
-21 -25 -25 -18 -4 -21 -8 -12 -14 7 -4 11 -14 8 -22 -3 -7 -1 -16 4 -19 18
-11 10 -23 -17 -28 -24 -4 -26 -4 -10 8 25 18 21 28 -8 22 -14 -2 -23 -2 -21
1 3 2 1 13 -4 22 -8 14 -5 19 13 25 13 4 17 8 10 12 -7 2 -13 9 -13 14 0 6 4
8 9 5 5 -3 12 1 15 10 9 23 51 14 51 -11z m222 -25 c1 -20 -2 -28 -7 -21 -5 9
-9 10 -14 2 -4 -6 -12 -9 -17 -6 -5 4 -9 -3 -9 -14 0 -12 7 -21 15 -21 8 0 15
-7 15 -15 0 -8 -7 -15 -15 -15 -8 0 -15 6 -15 14 0 8 -7 17 -16 20 -9 4 -12
11 -7 18 4 7 6 20 5 30 -3 17 36 50 53 45 5 -2 11 -19 12 -37z m-597 20 c0 -5
-4 -10 -10 -10 -5 0 -10 5 -10 10 0 6 5 10 10 10 6 0 10 -4 10 -10z m485 -20
c3 -5 -1 -10 -9 -10 -9 0 -16 5 -16 10 0 6 4 10 9 10 6 0 13 -4 16 -10z m-415
-16 c0 -8 -4 -12 -10 -9 -5 3 -10 10 -10 16 0 5 5 9 10 9 6 0 10 -7 10 -16z
m364 -5 c-8 -14 -21 -11 -21 5 0 8 6 12 14 9 7 -3 10 -9 7 -14z m66 -14 c7 -8
11 -33 9 -58 -4 -43 10 -74 26 -59 4 4 1 -3 -6 -15 -17 -29 -32 -30 -24 -2 4
12 3 19 -2 16 -5 -3 -15 3 -22 15 -10 16 -10 18 0 12 9 -5 10 -2 6 11 -4 9 -3
23 2 29 8 9 2 12 -19 10 -20 -1 -27 2 -24 12 2 8 6 21 9 29 6 19 29 19 45 0z
m276 -33 c-5 -14 -13 -19 -29 -16 l-22 5 23 -10 c23 -11 31 -54 12 -66 -5 -3
-7 -12 -3 -20 3 -8 1 -15 -3 -15 -13 0 -39 18 -40 27 0 4 -4 16 -8 26 -5 9 -4
23 0 30 5 7 1 4 -8 -6 -10 -11 -18 -15 -18 -10 0 6 16 24 35 42 19 17 35 28
35 24 0 -4 5 -2 12 5 15 15 21 8 14 -16z m1454 18 c0 -5 -2 -10 -4 -10 -3 0
-8 5 -11 10 -3 6 -1 10 4 10 6 0 11 -4 11 -10z m-1818 -7 c-6 -2 -9 -10 -6
-15 4 -7 2 -8 -5 -4 -13 9 -5 26 12 25 9 0 8 -2 -1 -6z m185 -25 c-3 -8 -6 -5
-6 6 -1 11 2 17 5 13 3 -3 4 -12 1 -19z m4851 -26 c4 -28 -24 -40 -45 -19 -21
21 -9 49 19 45 15 -2 24 -11 26 -26z m-5023 8 c-3 -5 -2 -10 3 -10 5 0 9 -7 9
-15 0 -18 -13 -10 -27 16 -9 15 -7 19 5 19 9 0 13 -4 10 -10z m-640 -30 c0
-29 -32 -41 -41 -16 -9 24 4 48 23 44 12 -2 18 -12 18 -28z m403 2 c4 -28 -24
-40 -45 -19 -21 21 -9 49 19 45 15 -2 24 -11 26 -26z m172 18 c-13 -8 -12 -10
3 -10 9 0 17 -4 17 -10 0 -14 -16 -12 -29 3 -11 14 -5 27 13 27 6 0 4 -5 -4
-10z m1720 -31 c0 -5 -10 -9 -21 -9 -18 0 -19 2 -9 15 12 15 30 12 30 -6z
m4117 -15 c2 -6 -3 -18 -10 -28 -20 -28 -67 -14 -67 19 0 32 28 48 54 31 11
-7 21 -17 23 -22z m-6117 16 c0 -5 -2 -10 -4 -10 -3 0 -8 5 -11 10 -3 6 -1 10
4 10 6 0 11 -4 11 -10z m850 -20 c8 -16 8 -18 -5 -14 -8 4 -15 11 -15 18 0 6
-5 4 -10 -4 -8 -13 -10 -13 -10 1 0 34 22 33 40 -1z m1180 0 c0 -5 -5 -10 -11
-10 -5 0 -7 5 -4 10 3 6 8 10 11 10 2 0 4 -4 4 -10z m-2522 -12 c-7 -19 -38
-22 -38 -4 0 10 9 16 21 16 12 0 19 -5 17 -12z m824 -14 c-7 -12 -11 -13 -17
-4 -4 7 -2 16 6 21 18 11 23 4 11 -17z m685 -6 c-3 -8 -6 -5 -6 6 -1 11 2 17
5 13 3 -3 4 -12 1 -19z m20 0 c-3 -8 -6 -5 -6 6 -1 11 2 17 5 13 3 -3 4 -12 1
-19z m-645 -45 c156 -228 354 -416 613 -580 208 -132 572 -300 627 -289 21 4
30 1 38 -14 11 -21 122 -60 391 -135 157 -44 209 -65 161 -65 -31 0 -275 68
-356 99 -16 7 -31 9 -34 6 -3 -2 -11 0 -17 5 -7 6 -24 11 -39 12 -14 1 -26 6
-26 11 0 5 -9 7 -20 4 -11 -3 -18 -1 -14 4 5 8 -12 13 -43 12 -7 -1 -13 3 -13
8 0 8 -67 25 -82 21 -5 -1 -8 3 -8 9 0 6 -6 9 -12 7 -7 -3 -19 1 -26 9 -8 7
-18 11 -23 8 -5 -4 -9 -2 -9 3 0 5 -33 21 -72 37 -40 15 -95 39 -121 52 -26
13 -53 21 -59 17 -6 -4 -8 -3 -5 3 8 13 -20 26 -35 16 -7 -4 -8 -1 -3 7 6 10
4 12 -9 7 -11 -5 -15 -3 -10 5 5 8 2 9 -10 5 -11 -5 -15 -3 -10 5 5 8 2 9 -10
5 -9 -4 -15 -3 -12 2 6 9 -110 84 -131 84 -7 0 -13 3 -13 7 0 10 -112 83 -127
83 -6 0 -11 3 -10 7 4 13 -94 81 -105 74 -6 -4 -8 -3 -5 3 7 11 -122 130 -136
125 -5 -1 -6 1 -3 6 3 5 -13 26 -36 48 -22 21 -38 33 -34 27 4 -7 2 -13 -4
-13 -6 0 -9 8 -6 18 7 21 -48 80 -58 64 -4 -6 3 -17 14 -25 20 -14 20 -14 1
-31 -13 -12 -21 -14 -26 -6 -3 5 -12 7 -18 4 -7 -4 -9 -4 -5 1 4 4 2 15 -5 23
-10 13 -9 15 11 10 12 -4 22 -2 22 3 0 5 -7 9 -15 9 -8 0 -15 4 -15 10 0 5 6
7 14 4 31 -12 24 19 -19 78 -25 35 -48 68 -52 74 -13 17 -33 53 -33 59 0 13
12 1 42 -42z m1494 22 c14 -13 13 -15 -5 -15 -12 0 -21 6 -21 15 0 8 3 15 6
15 3 0 12 -7 20 -15z m-1546 -10 c0 -8 -2 -15 -4 -15 -2 0 -6 7 -10 15 -3 8
-1 15 4 15 6 0 10 -7 10 -15z m136 -14 c0 -11 -4 -17 -8 -15 -4 3 -8 12 -8 20
0 8 4 14 8 14 4 0 8 -9 8 -19z m5340 -2 c10 -17 -13 -36 -27 -22 -12 12 -4 33
11 33 5 0 12 -5 16 -11z m-5191 -9 c-5 -8 32 -50 45 -50 5 0 12 -9 15 -20 4
-13 15 -20 31 -20 38 0 27 -33 -13 -41 -29 -6 -31 -4 -23 12 13 23 13 22 -10
49 -11 13 -20 19 -20 13 0 -15 -57 -14 -70 2 -9 11 -7 17 9 27 12 7 21 16 21
21 0 4 -5 5 -12 1 -6 -4 -8 -3 -5 3 3 5 13 10 21 10 8 0 13 -3 11 -7z m1480
-15 c0 -22 -31 -33 -47 -17 -17 17 -1 44 24 40 15 -2 23 -10 23 -23z m-37 -43
c-10 -2 -25 1 -32 7 -8 6 -22 8 -31 4 -12 -4 -16 -3 -11 5 3 6 2 13 -4 17 -5
3 -10 10 -10 16 0 5 24 -3 54 -18 39 -20 48 -29 34 -31z m-1101 9 c26 -19 28
-25 9 -40 -10 -8 -19 -6 -38 9 -14 10 -27 17 -30 15 -2 -2 -5 7 -6 21 -2 22 1
24 21 18 12 -4 32 -14 44 -23z m-600 -3 c-3 -8 -6 -5 -6 6 -1 11 2 17 5 13 3
-3 4 -12 1 -19z m-272 2 c3 -5 -1 -10 -10 -10 -9 0 -13 5 -10 10 3 6 8 10 10
10 2 0 7 -4 10 -10z m2115 -11 c0 -5 -4 -9 -10 -9 -5 0 -10 7 -10 16 0 8 5 12
10 9 6 -3 10 -10 10 -16z m-1784 -66 c-3 -4 -6 -1 -6 5 0 6 -6 9 -14 6 -8 -3
-17 -1 -21 5 -4 7 1 8 12 4 16 -6 16 -5 4 10 -7 9 -17 14 -22 11 -5 -3 -6 2
-3 10 5 12 11 9 31 -15 14 -16 23 -33 19 -36z m1574 63 c0 -2 -7 -7 -16 -10
-8 -3 -12 -2 -9 4 6 10 25 14 25 6z m217 -30 c-9 -24 15 -36 55 -27 26 6 37 5
35 -3 -1 -6 4 -10 12 -8 7 1 19 -2 27 -9 8 -6 26 -8 41 -5 21 5 24 4 13 -4
-12 -7 -7 -10 20 -11 19 -1 41 -1 48 0 6 1 12 -3 12 -10 0 -6 8 -9 20 -6 11 3
23 1 26 -5 3 -5 19 -6 35 -3 24 6 28 4 23 -10 -6 -16 -45 -17 -84 -3 -18 7
-129 26 -185 33 -22 3 -53 9 -70 13 -16 5 -35 7 -41 5 -6 -2 -16 3 -23 11 -10
12 -8 14 11 10 13 -2 18 -2 12 1 -14 7 -6 45 8 45 6 0 8 -6 5 -14z m-219 -11
c3 -3 -2 -13 -11 -22 -15 -15 -17 -15 -23 3 -4 10 -12 22 -18 27 -6 4 2 5 18
3 16 -3 31 -8 34 -11z m3781 -13 c13 -24 -4 -52 -33 -52 -26 0 -40 23 -31 51
8 24 51 25 64 1z m-6095 2 c22 -8 21 -63 0 -71 -39 -15 -71 40 -38 64 21 15
18 15 38 7z m2266 -4 c0 -5 -4 -10 -10 -10 -5 0 -10 5 -10 10 0 6 5 10 10 10
6 0 10 -4 10 -10z m3077 -5 c6 -19 -22 -46 -40 -39 -17 6 -23 35 -10 48 10 10
46 3 50 -9z m89 4 c9 -16 -12 -33 -31 -25 -14 5 -15 9 -5 21 15 18 26 19 36 4z
m-5031 -49 c3 -5 1 -10 -4 -10 -6 0 -11 5 -11 10 0 6 2 10 4 10 3 0 8 -4 11
-10z m1085 -10 c0 -5 -4 -10 -10 -10 -5 0 -10 5 -10 10 0 6 5 10 10 10 6 0 10
-4 10 -10z m-445 -10 c3 -5 -1 -10 -9 -10 -9 0 -16 5 -16 10 0 6 4 10 9 10 6
0 13 -4 16 -10z m1963 4 c27 -5 20 -24 -9 -24 -14 0 -18 4 -13 13 6 9 4 9 -7
1 -21 -16 -69 -26 -69 -14 0 5 5 10 11 10 5 0 8 4 5 8 -6 9 47 13 82 6z
m-2581 -20 c10 -10 12 -19 6 -25 -6 -6 -14 0 -21 16 -13 29 -8 32 15 9z m543
6 c0 -5 -4 -10 -10 -10 -5 0 -10 5 -10 10 0 6 5 10 10 10 6 0 10 -4 10 -10z
m2150 -16 c0 -2 -7 -4 -15 -4 -8 0 -15 4 -15 10 0 5 7 7 15 4 8 -4 15 -8 15
-10z m284 7 c9 -15 -23 -36 -36 -23 -5 5 -7 15 -4 21 9 13 33 14 40 2z m-2129
-11 c3 -5 1 -10 -4 -10 -6 0 -11 5 -11 10 0 6 2 10 4 10 3 0 8 -4 11 -10z
m-770 -10 c3 -5 1 -10 -4 -10 -6 0 -11 5 -11 10 0 6 2 10 4 10 3 0 8 -4 11
-10z m505 -22 c0 -6 -7 -5 -15 2 -8 7 -15 17 -15 22 0 6 7 5 15 -2 8 -7 15
-17 15 -22z m175 2 c8 -14 -13 -40 -32 -40 -7 0 -16 7 -20 16 -10 26 38 47 52
24z m2085 0 c0 -5 -2 -10 -4 -10 -3 0 -8 5 -11 10 -3 6 -1 10 4 10 6 0 11 -4
11 -10z m2623 4 c9 -10 -4 -34 -19 -34 -8 0 -14 9 -14 20 0 19 19 27 33 14z
m-5427 -18 c16 -17 18 -26 4 -26 -5 0 -14 9 -20 20 -12 23 -5 26 16 6z m84 2
c0 -4 -3 -8 -7 -8 -5 0 -9 -20 -10 -45 -1 -28 2 -43 8 -40 5 4 6 11 3 17 -4 7
-2 8 4 4 7 -4 12 -15 12 -26 0 -10 7 -20 15 -24 8 -3 15 -10 15 -15 0 -12 138
-151 150 -151 9 0 60 -47 60 -55 0 -12 -65 39 -132 103 -37 35 -71 61 -77 57
-6 -3 -9 0 -5 8 3 8 -17 36 -46 66 -27 28 -50 57 -50 64 0 7 7 3 15 -7 13 -18
15 -18 21 -2 4 10 2 27 -3 39 -9 19 -8 23 8 23 11 0 19 -4 19 -8z m1015 3 c7
-12 -12 -24 -25 -16 -11 7 -4 25 10 25 5 0 11 -4 15 -9z m-195 -15 c0 -8 -5
-18 -11 -22 -14 -8 -33 11 -25 25 10 16 36 13 36 -3z m399 -10 c11 -12 12 -18
2 -29 -17 -21 -49 -27 -55 -11 -3 8 -12 14 -20 14 -10 0 -13 6 -10 15 4 8 13
15 21 15 8 0 12 4 8 9 -9 15 37 3 54 -13z m1128 8 c-3 -3 -12 -4 -19 -1 -8 3
-5 6 6 6 11 1 17 -2 13 -5z m3218 -14 c7 -11 -12 -50 -25 -50 -16 0 -39 31
-34 45 7 17 50 20 59 5z m-4495 -4 c0 -3 -4 -8 -10 -11 -5 -3 -10 -1 -10 4 0
6 5 11 10 11 6 0 10 -2 10 -4z m4306 -11 c8 -21 -38 -86 -91 -130 -24 -19 -85
-75 -136 -125 -121 -119 -398 -322 -644 -473 -141 -87 -177 -108 -180 -105 -1
2 -5 26 -8 54 l-6 52 82 52 c45 28 93 59 107 69 14 10 120 85 235 166 116 82
230 165 255 185 25 20 68 52 95 70 28 19 95 71 149 117 99 82 131 97 142 68z
m-3066 -5 c0 -5 -7 -10 -15 -10 -8 0 -15 5 -15 10 0 6 7 10 15 10 8 0 15 -4
15 -10z m200 6 c0 -3 -4 -8 -10 -11 -5 -3 -10 -1 -10 4 0 6 5 11 10 11 6 0 10
-2 10 -4z m2028 -24 c3 -17 -2 -22 -17 -22 -14 0 -21 6 -21 18 0 38 33 41 38
4z m-4254 3 c-4 -8 -11 -12 -16 -9 -6 4 -5 10 3 15 19 12 19 11 13 -6z m271
-3 c-3 -3 -11 0 -18 7 -9 10 -8 11 6 5 10 -3 15 -9 12 -12z m4543 -1 c21 -13
11 -55 -15 -59 -30 -4 -49 31 -27 52 18 18 24 19 42 7z m-3788 -11 c0 -5 -4
-10 -10 -10 -5 0 -10 5 -10 10 0 6 5 10 10 10 6 0 10 -4 10 -10z m-1487 -28
c24 -21 22 -77 -3 -102 -24 -24 -67 -26 -98 -4 -16 11 -22 25 -22 53 0 70 69
100 123 53z m-387 7 c10 -17 -13 -36 -27 -22 -12 12 -4 33 11 33 5 0 12 -5 16
-11z m639 1 c3 -5 1 -10 -4 -10 -6 0 -11 5 -11 10 0 6 2 10 4 10 3 0 8 -4 11
-10z m873 -44 c4 -17 -24 -34 -35 -22 -4 4 -8 20 -9 37 -2 29 -1 30 19 16 12
-8 23 -22 25 -31z m89 18 c-9 -9 -28 6 -21 18 4 6 10 6 17 -1 6 -6 8 -13 4
-17z m-257 12 c0 -3 -4 -8 -10 -11 -5 -3 -10 -1 -10 4 0 6 5 11 10 11 6 0 10
-2 10 -4z m340 -10 c0 -15 -24 -28 -34 -19 -13 14 -5 33 14 33 11 0 20 -6 20
-14z m-1005 -7 c11 -16 1 -19 -13 -3 -7 8 -8 14 -3 14 5 0 13 -5 16 -11z m605
1 c0 -5 -5 -10 -11 -10 -5 0 -7 5 -4 10 3 6 8 10 11 10 2 0 4 -4 4 -10z m-25
-30 c-3 -5 -12 -10 -18 -10 -7 0 -6 4 3 10 19 12 23 12 15 0z m1325 -10 c52
-52 -17 -123 -72 -73 -10 9 -18 24 -18 35 0 22 34 58 55 58 8 0 24 -9 35 -20z
m-1550 -18 c0 -4 -9 -8 -20 -9 -11 -1 -20 2 -20 5 0 4 9 8 20 9 11 1 20 -2 20
-5z m715 -1 c3 -5 1 -12 -5 -16 -5 -3 -10 1 -10 9 0 18 6 21 15 7z m3850 -21
c9 -27 -5 -50 -31 -50 -26 0 -44 24 -37 51 9 32 58 32 68 -1z m3489 8 c23 -38
-35 -78 -61 -42 -17 23 -16 29 3 49 20 19 43 16 58 -7z m-9256 3 c21 -13 11
-55 -15 -59 -30 -4 -49 31 -27 52 18 18 24 19 42 7z m1517 -21 c3 -6 -1 -7 -9
-4 -18 7 -21 14 -7 14 6 0 13 -4 16 -10z m313 -33 c3 -25 0 -28 -20 -25 -17 2
-24 11 -26 31 -3 25 0 28 20 25 17 -2 24 -11 26 -31z m402 23 c-13 -8 -12 -10
5 -11 11 -1 24 -1 29 0 5 1 12 -2 15 -7 17 -25 122 -59 281 -92 136 -29 502
-51 470 -29 -11 7 -1 8 35 4 62 -6 168 8 173 24 3 9 7 9 18 0 12 -10 54 -12
122 -7 6 1 12 5 12 9 0 4 -6 10 -12 12 -7 3 -1 6 15 6 15 1 27 -5 28 -11 0
-10 2 -10 6 0 2 6 9 10 14 6 5 -3 28 -7 51 -9 41 -5 56 -11 47 -20 -3 -2 -42
-7 -87 -11 -45 -4 -82 -10 -82 -14 0 -6 -6 -8 -42 -11 -7 -1 -22 2 -33 6 -17
6 -18 5 -5 -5 13 -10 12 -11 -5 -5 -11 4 -30 9 -43 10 -18 3 -22 0 -18 -13 5
-15 4 -14 -8 1 -12 16 -14 16 -20 2 -4 -12 -10 -14 -25 -5 -17 9 -117 6 -186
-5 -11 -2 -33 -4 -48 -4 -16 -1 -26 -5 -22 -11 3 -5 2 -10 -4 -10 -5 0 -11 5
-13 11 -2 6 -49 12 -118 14 -63 2 -131 7 -150 11 -19 3 -50 6 -67 6 -18 -1
-33 3 -33 8 0 5 -6 7 -13 4 -8 -3 -27 1 -43 7 -16 7 -38 13 -48 14 -11 1 -22
7 -24 14 -3 8 -9 6 -19 -6 -13 -17 -14 -16 -7 6 6 21 4 23 -17 18 -15 -4 -30
0 -41 10 -16 14 -20 14 -45 -2 -20 -13 -24 -14 -16 -3 7 8 9 19 5 23 -4 5 -1
5 7 0 10 -6 12 -4 6 4 -4 7 -15 11 -25 8 -10 -2 -24 0 -31 5 -10 7 -9 8 6 4
17 -5 16 -3 -5 13 -13 11 -28 17 -32 15 -4 -3 -8 -1 -8 5 0 9 21 18 50 20 13
1 13 0 0 -9z m-135 -9 c3 -5 1 -12 -5 -16 -5 -3 -10 1 -10 9 0 18 6 21 15 7z
m-1897 -32 c4 -30 -22 -46 -44 -28 -15 12 -19 41 -7 53 16 16 48 1 51 -25z
m1527 1 c-5 -8 -11 -8 -17 -2 -6 6 -7 16 -3 22 5 8 11 8 17 2 6 -6 7 -16 3
-22z m-452 5 c-3 -9 -8 -14 -10 -11 -3 3 -2 9 2 15 9 16 15 13 8 -4z m1689
-12 c25 -23 23 -30 -13 -38 -40 -9 -53 4 -33 33 18 26 22 27 46 5z m305 5 c10
-17 13 -38 5 -39 -4 0 -16 -2 -28 -4 -14 -3 -21 1 -21 13 -2 28 5 42 21 42 8
0 18 -6 23 -12z m-1851 -48 c15 -49 11 -58 -26 -62 -17 -2 -25 2 -28 17 -2 11
-14 28 -25 38 l-22 18 23 -11 c18 -9 23 -9 21 2 -4 33 1 39 21 28 12 -6 20 -7
20 -1 0 5 -5 12 -10 14 -6 3 -5 4 1 3 7 -1 18 -22 25 -46z m1337 13 c-7 -2
-19 -2 -25 0 -7 3 -2 5 12 5 14 0 19 -2 13 -5z m44 1 c-3 -3 -12 -4 -19 -1 -8
3 -5 6 6 6 11 1 17 -2 13 -5z m2258 -24 c0 -20 -6 -26 -26 -28 -30 -4 -46 22
-28 45 20 23 54 12 54 -17z m-3190 10 c-3 -5 -16 -10 -28 -9 -21 0 -21 1 -2 9
28 12 37 12 30 0z m368 3 c-7 -2 -19 -2 -25 0 -7 3 -2 5 12 5 14 0 19 -2 13
-5z m-1834 -30 c12 -23 -4 -53 -29 -53 -26 0 -45 36 -29 56 16 19 46 18 58 -3z
m1948 1 c-3 -3 -12 -4 -19 -1 -8 3 -5 6 6 6 11 1 17 -2 13 -5z m-1345 -36 c-9
-9 -12 -7 -12 12 0 19 3 21 12 12 9 -9 9 -15 0 -24z m2658 5 c-1 -27 -1 -27
-15 -9 -14 19 -12 36 6 36 5 0 9 -12 9 -27z m-2886 2 c3 -9 -1 -18 -10 -22
-19 -7 -28 2 -21 22 8 19 23 19 31 0z m2233 9 c-3 -3 -12 -4 -19 -1 -8 3 -5 6
6 6 11 1 17 -2 13 -5z m-1897 -63 c3 -4 21 -17 40 -29 62 -39 19 -23 -56 21
-79 45 -101 71 -31 36 23 -12 44 -25 47 -28z m7968 17 c17 -17 15 -43 -4 -59
-31 -26 -70 25 -44 56 15 18 32 19 48 3z m-6983 -16 c-3 -3 -11 0 -18 7 -9 10
-8 11 6 5 10 -3 15 -9 12 -12z m-1250 -22 c0 -20 -5 -25 -25 -25 -20 0 -26 6
-28 28 -3 26 -1 28 25 25 22 -2 28 -8 28 -28z m1982 24 c-3 -3 -12 -4 -19 -1
-8 3 -5 6 6 6 11 1 17 -2 13 -5z m-2609 -21 c13 -26 4 -43 -24 -43 -26 0 -40
20 -30 45 8 21 43 19 54 -2z m4205 -18 c221 -64 368 -276 338 -489 -53 -374
-535 -531 -816 -265 -91 86 -136 195 -136 322 1 114 39 212 114 295 125 136
318 189 500 137z m-2918 -15 c3 -5 2 -10 -4 -10 -5 0 -13 5 -16 10 -3 6 -2 10
4 10 5 0 13 -4 16 -10z m115 0 c0 -5 -2 -10 -4 -10 -3 0 -8 5 -11 10 -3 6 -1
10 4 10 6 0 11 -4 11 -10z m-374 -7 c-10 -11 -37 -12 -30 -2 3 5 12 9 21 9 9
0 13 -3 9 -7z m424 -38 c17 -21 1 -38 -33 -33 -21 3 -23 6 -16 26 10 26 31 29
49 7z m45 5 c3 -5 1 -10 -4 -10 -6 0 -11 5 -11 10 0 6 2 10 4 10 3 0 8 -4 11
-10z m640 -8 c-3 -3 -11 0 -18 7 -9 10 -8 11 6 5 10 -3 15 -9 12 -12z m41 -20
c-3 -20 -27 -23 -33 -4 -3 6 3 12 12 12 10 0 13 5 9 12 -4 6 -3 8 4 5 5 -4 9
-15 8 -25z m88 -3 c-9 -15 275 -61 366 -58 30 1 78 1 105 -1 46 -1 48 -2 25
-13 -14 -6 -27 -15 -30 -19 -3 -4 -54 0 -114 8 -59 7 -130 16 -157 18 -27 3
-53 7 -58 10 -5 3 -24 8 -42 11 -19 3 -41 6 -49 9 -8 2 -30 7 -47 11 -18 4
-33 11 -33 16 0 4 -10 10 -22 12 -13 2 -4 4 18 3 23 0 40 -4 38 -7z m-844 -35
c0 -8 -5 -12 -10 -9 -6 4 -8 11 -5 16 9 14 15 11 15 -7z m1934 -16 c8 -14 7
-21 -6 -34 -30 -30 -75 9 -48 42 16 18 39 15 54 -8z m-1899 1 c11 -16 1 -19
-13 -3 -7 8 -8 14 -3 14 5 0 13 -5 16 -11z m-617 -11 c19 -19 14 -38 -14 -50
-22 -10 -28 -10 -40 6 -26 37 22 76 54 44z m662 -8 c0 -5 -2 -10 -4 -10 -3 0
-8 5 -11 10 -3 6 -1 10 4 10 6 0 11 -4 11 -10z m1515 0 c3 -5 1 -10 -4 -10 -6
0 -11 5 -11 10 0 6 2 10 4 10 3 0 8 -4 11 -10z m-1945 -15 c26 -32 -13 -81
-47 -59 -24 15 -27 38 -8 58 20 20 39 20 55 1z m-605 -33 c113 -55 164 -191
114 -302 -42 -93 -112 -140 -209 -140 -172 0 -285 181 -209 335 57 112 194
161 304 107z m1110 18 c3 -5 1 -10 -4 -10 -6 0 -11 5 -11 10 0 6 2 10 4 10 3
0 8 -4 11 -10z m55 -10 c0 -5 -9 -10 -21 -10 -11 0 -17 5 -14 10 3 6 13 10 21
10 8 0 14 -4 14 -10z m1193 3 c-7 -2 -19 -2 -25 0 -7 3 -2 5 12 5 14 0 19 -2
13 -5z m-3035 -45 c-4 -26 -30 -43 -52 -35 -21 8 -21 53 1 66 25 13 55 -5 51
-31z m1926 16 c23 -9 20 -24 -4 -24 -11 0 -20 7 -20 15 0 17 2 18 24 9z m320
-30 c7 -19 1 -31 -24 -44 -13 -7 -21 -7 -26 2 -5 7 -2 9 7 4 8 -4 7 -1 -2 5
-15 11 -15 14 0 31 19 22 37 23 45 2z m-234 -4 c0 -5 -7 -10 -15 -10 -8 0 -15
5 -15 10 0 6 7 10 15 10 8 0 15 -4 15 -10z m74 -5 c-4 -8 -10 -15 -15 -15 -4
0 -6 7 -3 15 4 8 10 15 15 15 4 0 6 -7 3 -15z m-353 -5 c22 -12 26 -59 7 -78
-17 -17 -48 -15 -70 5 -23 21 -23 38 2 63 23 23 33 24 61 10z m1789 -25 c0 -8
-4 -15 -9 -15 -13 0 -22 16 -14 24 11 11 23 6 23 -9z m5590 0 c20 -24 3 -57
-28 -53 -30 3 -41 30 -22 53 16 19 34 19 50 0z m-7702 -26 c-2 -6 -8 -10 -13
-10 -5 0 -11 4 -13 10 -2 6 4 11 13 11 9 0 15 -5 13 -11z m950 -11 c18 -18 14
-36 -9 -43 -24 -8 -66 26 -55 44 9 15 49 14 64 -1z m790 1 c-2 -6 -8 -10 -13
-10 -5 0 -11 4 -13 10 -2 6 4 11 13 11 9 0 15 -5 13 -11z m-1612 -35 c8 -30
-11 -54 -40 -54 -46 0 -62 48 -25 73 27 20 58 10 65 -19z m254 32 c0 -3 -4 -8
-10 -11 -5 -3 -10 -1 -10 4 0 6 5 11 10 11 6 0 10 -2 10 -4z m208 -38 c17 -17
15 -43 -4 -59 -31 -26 -70 25 -44 56 15 18 32 19 48 3z m632 -18 c0 -5 -5 -10
-11 -10 -5 0 -7 5 -4 10 3 6 8 10 11 10 2 0 4 -4 4 -10z m-553 -16 c3 -8 0
-21 -6 -27 -10 -9 -16 -8 -26 7 -8 10 -12 23 -9 27 9 15 34 10 41 -7z m1233 0
c0 -9 -5 -14 -12 -12 -18 6 -21 28 -4 28 9 0 16 -7 16 -16z m-1477 -48 c7 -18
-11 -36 -29 -29 -21 8 -17 43 5 43 10 0 21 -6 24 -14z m1005 -48 c-2 -15 -10
-23 -23 -23 -13 0 -21 8 -23 23 -3 18 1 22 23 22 22 0 26 -4 23 -22z m522 12
c0 -5 -4 -10 -10 -10 -5 0 -10 5 -10 10 0 6 5 10 10 10 6 0 10 -4 10 -10z
m-1448 -47 c38 -36 38 -89 2 -132 -14 -17 -32 -31 -40 -31 -9 0 -6 -10 11 -36
54 -80 71 -300 31 -396 -9 -21 -17 -41 -17 -45 0 -5 -15 -35 -32 -68 -61 -115
-235 -271 -268 -238 -17 17 0 40 57 77 155 104 251 320 223 509 -6 42 -15 80
-20 83 -5 3 -9 27 -9 53 0 45 -2 48 -39 64 -88 39 -88 156 -1 190 27 11 74 -3
102 -30z m-453 2 c247 -52 417 -275 381 -500 -13 -80 -26 -115 -72 -187 -118
-183 -321 -276 -511 -234 -73 16 -167 64 -215 109 -55 51 -124 181 -137 259
-8 44 -15 48 -15 10 0 -57 39 -173 81 -246 23 -39 43 -74 45 -77 2 -4 -3 -12
-11 -19 -20 -17 -52 20 -97 112 -48 97 -68 178 -68 276 0 92 11 132 40 139 11
3 20 11 20 18 0 7 16 44 35 82 71 141 197 235 355 263 69 12 93 11 169 -5z
m1675 -1 c19 -18 19 -20 6 -45 -18 -33 -70 -18 -70 21 0 19 19 40 36 40 7 0
20 -7 28 -16z m390 -41 c9 -23 -4 -33 -134 -98 -63 -32 -126 -66 -140 -75 -14
-9 -83 -48 -155 -85 -230 -120 -375 -204 -529 -305 -205 -135 -265 -181 -265
-205 -3 -73 -101 -90 -101 -18 0 16 11 30 35 44 19 12 35 27 35 34 0 7 33 30
74 50 43 22 79 48 87 62 7 13 24 26 38 30 27 7 116 59 212 124 112 76 799 458
825 459 7 0 15 -8 18 -17z m4154 -14 c4 -31 -19 -44 -49 -29 -22 12 -24 31 -7
48 21 21 53 10 56 -19z m-7484 5 c22 -21 3 -56 -27 -52 -28 4 -35 38 -11 55
22 16 19 16 38 -3z m2061 -54 c8 -25 -1 -40 -24 -40 -28 0 -46 26 -31 45 18
21 48 19 55 -5z m5823 -3 c2 -12 -3 -17 -17 -17 -12 0 -21 6 -21 13 0 31 32
34 38 4z m-5488 -37 c0 -5 -4 -10 -10 -10 -5 0 -10 5 -10 10 0 6 5 10 10 10 6
0 10 -4 10 -10z m5744 1 c9 -14 -4 -41 -19 -41 -18 0 -28 17 -21 35 6 17 32
20 40 6z m547 -1 c22 -12 26 -59 7 -78 -7 -7 -24 -12 -38 -12 -32 0 -50 17
-50 46 0 44 40 65 81 44z m-1451 -25 c0 -8 -6 -15 -14 -15 -17 0 -28 14 -19
24 12 12 33 6 33 -9z m-574 -6 c10 -17 -23 -46 -37 -32 -7 7 -9 19 -6 27 7 18
33 21 43 5z m-4446 -18 c0 -14 -18 -23 -30 -16 -6 4 -8 11 -5 16 8 12 35 12
35 0z m-2109 -30 c36 -36 37 -70 3 -110 -26 -31 -68 -41 -109 -25 -19 8 -45
55 -45 84 0 33 53 80 90 80 22 0 41 -9 61 -29z m2357 20 c8 -5 12 -21 10 -37
-2 -25 -7 -29 -32 -29 -40 0 -56 27 -32 54 21 23 33 25 54 12z m591 -42 c-16
-10 -23 -4 -14 10 3 6 11 8 17 5 6 -4 5 -9 -3 -15z m236 -14 c0 -13 -8 -21
-22 -23 -17 -3 -23 2 -23 16 0 10 3 22 7 26 13 13 38 1 38 -19z m-1285 -6 c0
-4 7 -6 15 -3 9 4 18 -1 21 -10 8 -22 -1 -30 -23 -21 -10 5 -24 9 -31 11 -20
4 -25 11 -19 28 6 16 37 12 37 -5z m5190 -14 c0 -32 -23 -49 -49 -35 -27 14
-27 35 0 54 27 19 49 10 49 -19z m-4006 9 c20 -8 21 -28 2 -43 -17 -14 -41 11
-32 34 6 17 8 17 30 9z m248 -42 l16 -27 -136 -64 c-127 -59 -176 -72 -202
-56 -22 13 16 39 155 106 77 37 142 68 145 68 3 1 13 -11 22 -27z m4368 -1 c7
-15 6 -24 -6 -36 -19 -18 -33 -16 -48 7 -7 12 -6 21 3 32 18 22 38 20 51 -3z
m509 -43 c33 -59 -28 -120 -87 -87 -34 19 -42 71 -16 100 27 30 84 22 103 -13z
m-6373 1 c10 -17 -23 -46 -37 -32 -7 7 -9 19 -6 27 7 18 33 21 43 5z m5140
-11 c7 -22 -19 -52 -40 -45 -17 6 -29 34 -23 51 10 24 54 21 63 -6z m1769 -28
c0 -20 -6 -26 -26 -28 -17 -2 -29 3 -32 12 -11 28 4 47 32 44 20 -2 26 -8 26
-28z m-6725 -35 c18 -22 0 -48 -30 -42 -15 3 -32 1 -37 -4 -15 -15 -53 7 -53
30 0 10 3 20 6 24 11 11 103 5 114 -8z m308 -22 c-2 -10 -10 -18 -18 -18 -8 0
-16 8 -18 18 -2 12 3 17 18 17 15 0 20 -5 18 -17z m-2019 -52 c13 -24 -8 -55
-34 -50 -28 6 -42 34 -26 53 18 22 48 20 60 -3z m6089 -24 c2 -11 -3 -17 -17
-17 -23 0 -35 15 -26 31 10 15 39 6 43 -14z m-6513 -42 c0 -38 -37 -48 -55
-15 -14 27 4 52 34 48 16 -2 21 -10 21 -33z m7437 -4 c111 -29 190 -72 261
-145 66 -67 128 -176 146 -256 13 -58 13 -192 0 -250 -36 -158 -168 -309 -329
-377 -60 -25 -75 -28 -195 -27 -120 0 -135 2 -194 28 -162 70 -283 209 -326
371 -19 73 -19 205 -1 265 56 183 198 331 366 380 121 35 170 37 272 11z m638
-96 c0 -8 -4 -15 -9 -15 -13 0 -22 16 -14 24 11 11 23 6 23 -9z m-5376 -44
c22 -19 20 -26 -14 -61 -16 -17 -30 -36 -30 -42 0 -7 -12 -25 -27 -40 -29 -30
-85 -38 -125 -17 -16 9 -29 4 -76 -27 -255 -167 -477 -362 -568 -496 -16 -24
-41 -58 -56 -76 -15 -18 -28 -43 -28 -57 0 -13 -6 -30 -14 -38 -31 -31 -66
-213 -66 -348 0 -117 22 -197 85 -314 47 -86 132 -191 205 -252 25 -21 65 -57
89 -80 36 -36 41 -45 31 -58 -7 -8 -19 -15 -26 -15 -8 0 -59 41 -114 90 -100
91 -195 211 -244 308 -14 28 -33 52 -41 52 -20 0 -29 18 -16 33 7 9 4 33 -11
83 -18 60 -20 86 -15 204 3 74 9 146 15 160 5 14 17 52 27 85 16 58 80 197
100 219 6 6 27 33 48 60 64 85 207 227 312 311 106 85 236 180 283 206 18 10
31 27 35 46 3 16 18 41 32 56 25 25 32 26 110 24 51 -2 89 -8 99 -16z m-2247
-47 c8 -22 -10 -49 -32 -49 -10 0 -22 7 -28 16 -15 24 -1 49 28 49 15 0 28 -7
32 -16z m5019 -65 c10 -17 -23 -46 -37 -32 -7 7 -9 19 -6 27 7 18 33 21 43 5z
m-3501 -33 c0 -42 -29 -57 -56 -30 -29 29 -11 67 29 62 22 -2 27 -8 27 -32z
m805 0 c0 -8 -4 -17 -8 -20 -13 -8 -35 11 -28 23 10 16 36 14 36 -3z m3800
-47 c0 -11 -7 -22 -15 -25 -10 -4 -13 -13 -10 -25 10 -31 -4 -59 -29 -59 -48
0 -63 53 -21 72 16 7 25 19 25 34 0 23 16 34 38 26 6 -2 12 -13 12 -23z m1750
10 c0 -5 -7 -9 -15 -9 -15 0 -20 12 -9 23 8 8 24 -1 24 -14z m-2655 -14 c52
-51 13 -134 -63 -135 -43 0 -82 38 -82 80 0 71 94 107 145 55z m2392 4 c14
-14 6 -39 -12 -39 -18 0 -28 17 -21 35 6 18 18 19 33 4z m-6480 -30 c16 -16 5
-39 -17 -39 -20 0 -30 17 -22 38 5 15 24 16 39 1z m3359 -10 c10 -17 -13 -36
-27 -22 -12 12 -4 33 11 33 5 0 12 -5 16 -11z m3772 -27 c2 -7 -3 -12 -12 -12
-9 0 -16 7 -16 16 0 17 22 14 28 -4z m-8412 -18 c7 -29 -6 -47 -31 -42 -28 5
-41 33 -26 52 21 25 50 20 57 -10z m1422 4 c30 -30 0 -75 -43 -64 -29 7 -33
36 -9 60 19 19 36 20 52 4z m-1158 -23 c0 -8 -7 -15 -15 -15 -16 0 -20 12 -8
23 11 12 23 8 23 -8z m5686 4 c7 -12 -15 -31 -28 -23 -4 3 -8 12 -8 20 0 17
26 19 36 3z m-5588 -42 c4 -20 -25 -34 -40 -19 -15 15 -1 44 19 40 10 -2 19
-11 21 -21z m5751 -11 c17 -20 3 -46 -25 -46 -39 0 -32 54 7 59 4 1 12 -5 18
-13z m-5708 -36 c23 -13 25 -52 4 -70 -19 -15 -61 -6 -69 16 -7 18 18 64 35
64 6 0 19 -5 30 -10z m4369 -20 c8 -14 8 -26 0 -40 -19 -35 -80 -20 -80 20 0
40 61 55 80 20z m774 -58 c-23 -21 -61 -48 -85 -61 -106 -59 -255 -132 -289
-142 -28 -9 -39 -18 -46 -43 -10 -35 -37 -45 -62 -22 -16 14 -24 13 -87 -6
-39 -11 -77 -26 -85 -33 -8 -7 -33 -15 -55 -18 -22 -3 -76 -11 -120 -17 -107
-16 -141 -16 -159 0 -27 21 -2 37 73 44 252 23 553 131 851 306 59 34 88 46
95 39 7 -7 -3 -22 -31 -47z m-582 13 c10 -21 9 -29 -5 -43 -29 -28 -69 12 -53
54 9 23 45 16 58 -11z m-4029 -29 c3 -8 0 -22 -7 -31 -10 -14 -16 -15 -34 -6
-25 13 -27 22 -10 39 16 16 45 15 51 -2z m465 -13 c4 -25 -22 -37 -38 -17 -10
11 -10 17 0 29 17 20 34 14 38 -12z m4472 -45 c0 -13 -77 -78 -165 -137 -27
-19 -54 -40 -58 -48 -4 -7 -25 -21 -45 -31 -20 -10 -82 -42 -137 -72 -55 -30
-131 -66 -170 -81 -52 -21 -71 -33 -75 -50 -8 -34 -35 -47 -57 -26 -17 15 -24
15 -65 2 -26 -7 -57 -19 -69 -26 -13 -6 -39 -14 -58 -16 -20 -3 -41 -9 -47
-14 -6 -5 -31 -13 -55 -18 -402 -84 -413 -86 -544 -84 -117 1 -195 18 -195 42
0 14 118 29 270 36 141 6 257 21 277 37 6 5 22 6 35 3 63 -16 553 147 738 246
76 41 120 74 91 67 -8 -2 -17 5 -19 15 -4 21 26 24 34 3 7 -19 74 17 174 93
41 31 81 59 90 63 25 11 50 9 50 -4z m-1437 -56 c23 -20 22 -74 -2 -96 -28
-26 -79 -17 -105 17 -19 26 -19 30 -5 55 27 49 71 59 112 24z m-508 -17 c0
-25 -4 -30 -24 -30 -28 0 -47 25 -38 49 5 12 16 16 34 14 24 -3 28 -8 28 -33z
m2342 5 c140 -63 74 -300 -122 -438 -98 -69 -158 -91 -250 -92 -59 0 -76 4
-108 25 -62 43 -81 108 -57 195 37 133 232 293 388 320 76 12 104 11 149 -10z
m-5880 -6 c3 -8 1 -20 -5 -26 -15 -15 -43 8 -35 28 7 19 32 18 40 -2z m5229
-15 c3 -6 2 -15 -2 -19 -12 -12 -38 5 -30 19 9 14 23 14 32 0z m-4316 -50 c0
-23 -39 -36 -51 -18 -13 21 -11 37 8 48 22 12 43 -3 43 -30z m-642 3 c4 -28
-24 -40 -45 -19 -21 21 -9 49 19 45 15 -2 24 -11 26 -26z m3187 -17 c0 -23
-34 -33 -45 -14 -13 20 1 40 24 37 13 -2 21 -10 21 -23z m4079 9 c21 -8 21
-53 0 -61 -18 -7 -45 6 -51 24 -2 6 3 18 12 27 19 18 18 18 39 10z m-7704 -44
c0 -24 -26 -38 -42 -22 -16 16 -2 42 22 42 13 0 20 -7 20 -20z m7544 12 c8
-13 -11 -35 -23 -28 -16 10 -14 36 3 36 8 0 17 -4 20 -8z m416 -25 c0 -23 -30
-56 -45 -51 -15 6 -21 45 -8 57 11 12 53 7 53 -6z m-4249 -40 c-13 -13 -26 -3
-16 12 3 6 11 8 17 5 6 -4 6 -10 -1 -17z m224 3 c18 -20 18 -21 -3 -43 -18
-17 -26 -19 -40 -11 -22 14 -27 41 -12 59 17 20 34 19 55 -5z m1193 -9 c3 -8
-1 -12 -9 -9 -7 2 -15 10 -17 17 -3 8 1 12 9 9 7 -2 15 -10 17 -17z m2250 10
c8 -4 12 -19 10 -32 -2 -19 -9 -24 -33 -24 -33 0 -45 25 -25 50 14 17 29 19
48 6z m-6000 -13 c16 -16 15 -43 -2 -57 -21 -18 -56 3 -56 34 0 32 35 46 58
23z m3700 -16 c4 -28 -24 -41 -44 -20 -20 20 -7 50 20 46 13 -2 22 -12 24 -26z
m-1620 -24 c2 -20 -2 -28 -19 -33 -29 -9 -53 15 -44 44 10 34 59 25 63 -11z
m-2790 -86 c3 -17 -2 -22 -17 -22 -14 0 -21 6 -21 18 0 38 33 41 38 4z m4732
-21 c0 -30 -19 -45 -44 -35 -38 15 -27 64 15 64 25 0 29 -4 29 -29z m-5174
-22 c8 -14 -18 -31 -30 -19 -9 9 0 30 14 30 5 0 12 -5 16 -11z m3484 -4 c26
-31 -18 -71 -47 -42 -19 19 -8 57 16 57 10 0 24 -7 31 -15z m140 5 c0 -5 -4
-10 -10 -10 -5 0 -10 5 -10 10 0 6 5 10 10 10 6 0 10 -4 10 -10z m-3070 -34
c0 -3 -4 -8 -10 -11 -5 -3 -10 -1 -10 4 0 6 5 11 10 11 6 0 10 -2 10 -4z m595
-55 c7 -12 -12 -24 -25 -16 -11 7 -4 25 10 25 5 0 11 -4 15 -9z m6166 -11 c21
-12 25 -50 7 -68 -21 -21 -57 -14 -70 14 -11 23 -10 29 11 45 27 22 27 22 52
9z m-693 -12 c17 -17 15 -55 -4 -66 -40 -22 -76 17 -54 58 12 22 40 26 58 8z
m-3463 -48 c0 -32 -30 -39 -45 -10 -14 26 -4 42 23 38 16 -2 22 -10 22 -28z
m3851 -21 c10 -17 -13 -36 -27 -22 -12 12 -4 33 11 33 5 0 12 -5 16 -11z
m-806 -63 c0 -22 -222 -201 -234 -189 -3 4 -6 -3 -6 -14 0 -28 -35 -57 -61
-50 -15 4 -50 -14 -122 -60 -56 -36 -131 -81 -167 -98 -121 -61 -215 -103
-285 -130 -38 -15 -83 -33 -100 -40 -84 -36 -215 -74 -250 -73 -81 3 -176 -13
-196 -33 -23 -23 -39 -24 -64 -5 -16 12 -18 18 -7 40 10 23 16 26 64 24 35 -1
98 11 188 36 222 62 254 74 265 99 11 24 51 35 67 19 12 -12 83 11 173 55 33
16 69 34 81 39 11 5 66 33 122 63 81 43 102 59 102 76 0 29 8 35 35 25 18 -7
43 5 142 69 66 43 145 99 177 125 55 44 76 50 76 22z m-564 -36 c22 0 5 -26
-36 -55 -26 -18 -36 -32 -33 -44 2 -9 -3 -23 -11 -30 -13 -11 -20 -11 -39 2
-22 14 -28 12 -98 -27 -41 -23 -130 -68 -199 -101 -69 -33 -131 -65 -138 -72
-7 -7 -21 -13 -31 -13 -9 0 -85 -22 -167 -49 -82 -27 -203 -63 -269 -81 -66
-17 -129 -36 -139 -42 -11 -5 -42 -14 -70 -18 -28 -4 -109 -20 -179 -34 -151
-30 -456 -81 -577 -96 -173 -22 -184 -22 -205 -7 -20 15 -20 16 5 25 15 6 57
13 95 16 193 19 543 81 790 142 33 8 78 19 100 24 86 20 360 103 410 125 17 7
80 30 140 51 61 20 148 55 195 77 47 22 103 47 125 57 22 10 96 50 165 89 69
39 131 69 138 66 8 -3 20 -5 28 -5z m-5131 -24 c73 -34 110 -69 144 -138 36
-71 41 -145 15 -221 -27 -80 -139 -186 -182 -173 -21 7 -372 358 -372 372 0
19 46 82 82 113 83 72 217 92 313 47z m649 2 c8 -13 7 -21 -5 -33 -22 -22 -54
2 -44 34 8 25 32 25 49 -1z m5283 -53 c3 -9 -3 -25 -13 -36 -10 -11 -18 -34
-18 -52 -1 -26 -6 -33 -24 -35 -13 -2 -29 1 -36 7 -19 16 -39 5 -74 -38 -17
-21 -76 -68 -131 -105 -55 -36 -121 -87 -147 -111 -25 -25 -53 -46 -60 -46
-18 -2 -24 -3 -52 -13 -17 -6 -21 -12 -16 -32 11 -43 -38 -73 -67 -41 -16 16
-91 7 -116 -14 -21 -17 -38 -26 -158 -75 -49 -21 -97 -43 -106 -51 -8 -7 -25
-13 -36 -13 -11 0 -46 -11 -77 -25 -32 -14 -65 -27 -74 -29 -9 -1 -24 -6 -32
-9 -8 -3 -76 -22 -150 -42 -74 -19 -157 -41 -185 -49 -27 -8 -92 -22 -143 -31
-69 -13 -95 -22 -103 -36 -11 -21 -49 -25 -66 -8 -12 12 -266 -22 -316 -43
-18 -7 -32 -7 -38 -1 -6 6 -30 6 -67 0 -71 -12 -138 -14 -149 -4 -4 4 -2 16 3
25 9 14 44 20 180 34 184 18 232 25 464 70 182 35 400 88 520 127 47 16 110
36 140 45 130 42 396 153 519 218 227 118 351 205 501 347 84 79 115 95 127
66z m-747 -85 c0 -5 -4 -10 -10 -10 -5 0 -10 5 -10 10 0 6 5 10 10 10 6 0 10
-4 10 -10z m-4327 -64 c8 -20 -20 -43 -35 -28 -14 14 -3 42 16 42 7 0 16 -6
19 -14z m5217 -66 c0 -25 -30 -41 -53 -29 -21 12 -22 33 -1 53 19 20 54 5 54
-24z m280 9 c25 -46 -17 -92 -62 -68 -21 11 -25 58 -6 77 19 19 56 14 68 -9z
m-175 -139 c0 -19 -6 -26 -24 -28 -29 -4 -43 15 -30 41 15 28 54 19 54 -13z
m-1734 -30 c31 -17 18 -70 -17 -70 -14 0 -44 27 -44 40 0 9 28 40 36 40 3 0
14 -5 25 -10z m1359 -25 c52 -27 45 -112 -10 -130 -76 -24 -135 76 -74 124 32
25 46 26 84 6z m-4633 -55 c43 -27 83 -50 88 -50 6 0 47 -17 90 -39 98 -48
264 -101 327 -106 26 -2 53 -7 60 -11 25 -16 179 -33 205 -23 20 7 35 5 67
-11 59 -28 151 -28 166 0 16 29 48 25 68 -10 12 -21 22 -28 37 -24 26 7 68 6
179 -2 76 -5 90 -4 98 10 11 19 39 21 56 4 16 -16 326 8 358 28 15 10 34 13
56 9 18 -3 56 -1 83 5 28 6 84 15 125 21 41 5 104 13 140 18 36 6 75 8 88 4
34 -8 23 -36 -18 -45 -86 -18 -213 -38 -244 -38 -50 0 -138 -21 -158 -38 -11
-9 -27 -12 -45 -8 -36 9 -121 7 -258 -4 -60 -5 -155 -9 -210 -10 -55 0 -119
-5 -142 -10 -23 -6 -49 -7 -58 -4 -9 4 -28 1 -42 -7 -21 -12 -26 -11 -34 3 -6
12 -32 17 -104 23 l-95 7 -26 -31 c-33 -39 -74 -41 -109 -6 -14 13 -25 31 -25
40 0 8 -2 15 -5 15 -3 0 -38 6 -78 14 -40 8 -106 20 -147 26 -41 6 -100 20
-130 30 -30 10 -72 21 -94 25 -88 14 -367 161 -382 200 -6 15 12 45 27 45 4 0
43 -22 86 -50z m4861 31 c8 -5 12 -22 10 -42 -2 -28 -7 -35 -30 -37 -20 -2
-31 4 -44 23 -16 24 -16 27 1 45 19 21 41 25 63 11z m-4280 -57 c45 -31 15
-114 -42 -114 -35 0 -68 31 -68 65 0 54 63 82 110 49z m2111 -18 c9 -11 8 -18
-5 -30 -9 -9 -21 -15 -28 -13 -17 6 -20 38 -4 48 18 12 24 11 37 -5z m239 -9
c2 -12 -3 -17 -17 -17 -12 0 -21 6 -21 13 0 31 32 34 38 4z m2190 -9 c-2 -13
-10 -23 -18 -23 -8 0 -16 10 -18 23 -3 17 2 22 18 22 16 0 21 -5 18 -22z
m-2616 -23 c10 -22 9 -29 -10 -47 -20 -20 -22 -20 -46 -4 -42 27 -29 76 21 76
15 0 27 -9 35 -25z m1819 -1 c15 -19 2 -47 -26 -52 -25 -5 -38 13 -31 42 7 30
36 35 57 10z m-1709 -29 c0 -5 -5 -11 -11 -13 -6 -2 -11 4 -11 13 0 9 5 15 11
13 6 -2 11 -8 11 -13z m1873 -25 c0 -18 -6 -26 -23 -28 -13 -2 -25 3 -28 12
-10 26 4 48 28 44 17 -2 23 -10 23 -28z m-4695 5 c26 -32 -13 -81 -47 -59 -35
22 -23 74 17 74 10 0 23 -7 30 -15z m-576 -50 c8 -23 -4 -45 -25 -45 -11 0
-22 7 -25 15 -9 23 3 45 25 45 10 0 21 -7 25 -15z m704 -59 c4 -21 -14 -37
-35 -29 -14 5 -18 35 -6 47 12 12 38 1 41 -18z m4143 -5 c21 -22 29 -39 29
-66 0 -51 -44 -95 -95 -95 -51 0 -95 44 -95 95 0 51 44 95 95 95 27 0 44 -8
66 -29z m727 -42 c-2 -6 -8 -10 -13 -10 -5 0 -11 4 -13 10 -2 6 4 11 13 11 9
0 15 -5 13 -11z m-1226 -36 c23 -21 23 -36 -2 -58 -41 -37 -97 24 -58 63 17
17 38 15 60 -5z m-2982 -18 c13 -35 -6 -65 -40 -65 -38 0 -59 35 -40 69 15 29
69 26 80 -4z m-1042 -12 c5 -17 -26 -29 -40 -15 -6 6 -7 15 -3 22 9 14 37 9
43 -7z m408 -4 c9 -15 -11 -33 -30 -26 -9 4 -13 13 -10 22 7 17 30 20 40 4z
m4475 -26 c6 -16 3 -29 -10 -45 -16 -19 -23 -21 -47 -13 -32 12 -43 47 -23 71
18 22 70 14 80 -13z m-714 1 c8 -21 -13 -42 -28 -27 -13 13 -5 43 11 43 6 0
13 -7 17 -16z m-2387 -44 c0 -13 -7 -20 -18 -20 -24 0 -32 8 -25 26 8 22 43
17 43 -6z m-1549 -13 c-13 -13 -26 -3 -16 12 3 6 11 8 17 5 6 -4 6 -10 -1 -17z
m564 3 c11 -18 -6 -50 -25 -50 -25 0 -43 33 -28 48 15 15 45 16 53 2z m1393
-22 c36 -36 -11 -93 -57 -69 -39 21 -21 81 24 81 12 0 26 -5 33 -12z m322 -13
c0 -8 -9 -15 -20 -15 -11 0 -20 7 -20 15 0 8 9 15 20 15 11 0 20 -7 20 -15z
m-2000 -5 c0 -5 -7 -10 -15 -10 -8 0 -15 5 -15 10 0 6 7 10 15 10 8 0 15 -4
15 -10z m1527 -6 c8 -22 -10 -49 -32 -49 -22 0 -40 27 -32 49 8 21 56 21 64 0z
m697 10 c35 -13 15 -74 -24 -74 -39 0 -56 23 -42 55 11 25 34 31 66 19z
m-1239 -39 c0 -22 -31 -33 -47 -17 -17 17 -1 44 24 40 15 -2 23 -10 23 -23z
m-525 -100 c0 -43 -50 -53 -70 -14 -8 14 -6 23 10 39 26 26 60 12 60 -25z
m1718 -7 c2 -20 -2 -28 -19 -33 -29 -9 -53 15 -44 44 10 34 59 25 63 -11z
m-1350 -5 c-4 -22 -22 -20 -26 1 -2 10 3 16 13 16 10 0 15 -7 13 -17z m1070
-2 c21 -13 11 -55 -15 -59 -30 -4 -49 31 -27 52 18 18 24 19 42 7z m-2028 -31
c8 -14 8 -26 0 -40 -19 -35 -80 -20 -80 20 0 40 61 55 80 20z m3648 -2 c7 -7
12 -21 12 -33 0 -28 -19 -45 -50 -45 -31 0 -50 17 -50 45 0 12 5 26 12 33 15
15 61 15 76 0z m-958 -93 c0 -31 -26 -43 -47 -22 -21 21 -9 47 22 47 20 0 25
-5 25 -25z m300 10 c14 -17 5 -51 -16 -59 -22 -8 -54 11 -54 32 0 38 46 56 70
27z m-2232 -33 c2 -7 -6 -12 -17 -12 -21 0 -27 11 -14 24 9 9 26 2 31 -12z
m320 -34 c-4 -26 -30 -43 -52 -35 -21 8 -21 53 1 66 25 13 55 -5 51 -31z
m2132 7 c10 -12 10 -21 2 -40 -19 -42 -72 -26 -72 21 0 34 47 46 70 19z
m-1855 -30 c0 -26 -3 -30 -29 -30 -32 0 -53 23 -43 49 5 12 16 16 39 14 29 -3
33 -6 33 -33z m2329 -1 c22 -21 3 -56 -27 -52 -25 3 -34 32 -17 53 16 19 25
19 44 -1z m-1408 -50 c8 -32 -15 -59 -44 -50 -43 14 -33 76 13 76 18 0 26 -7
31 -26z m443 -10 c-6 -7 -17 -10 -25 -7 -17 6 -18 15 -2 31 17 17 43 -5 27
-24z m-1192 -23 c14 -29 4 -55 -28 -71 -28 -15 -69 11 -69 45 0 55 73 74 97
26z m-849 -10 c20 -12 11 -56 -12 -56 -27 0 -43 29 -27 49 15 18 21 19 39 7z
m1279 -47 c3 -8 1 -20 -5 -26 -15 -15 -43 8 -35 28 7 19 32 18 40 -2z m-678
-8 c17 -20 2 -48 -23 -44 -24 3 -34 37 -14 49 18 12 24 11 37 -5z m1716 -21
c0 -22 -31 -33 -47 -17 -17 17 -1 44 24 40 15 -2 23 -10 23 -23z m323 -18 c4
-20 -25 -34 -40 -19 -15 15 -1 44 19 40 10 -2 19 -11 21 -21z m-613 -67 c0
-29 -4 -36 -23 -38 -43 -6 -69 37 -40 66 7 7 24 12 38 10 21 -3 25 -8 25 -38z
m-340 -50 c0 -8 -8 -16 -17 -18 -13 -2 -18 3 -18 18 0 15 5 20 18 18 9 -2 17
-10 17 -18z m-740 -20 c0 -8 -8 -16 -17 -18 -13 -2 -18 3 -18 18 0 15 5 20 18
18 9 -2 17 -10 17 -18z"/>
<path d="M5488 9023 c7 -3 16 -2 19 1 4 3 -2 6 -13 5 -11 0 -14 -3 -6 -6z"/>
<path d="M6150 8910 c-9 -6 -10 -10 -3 -10 6 0 15 5 18 10 8 12 4 12 -15 0z"/>
<path d="M4040 8890 c0 -11 0 -23 -1 -27 0 -4 5 -9 13 -11 10 -3 10 -2 -1 6
-9 7 -10 12 -2 16 14 9 15 36 1 36 -5 0 -10 -9 -10 -20z"/>
<path d="M5346 8901 c-4 -5 3 -7 14 -4 23 6 26 13 6 13 -8 0 -17 -4 -20 -9z"/>
<path d="M3993 8887 c-13 -5 -23 -14 -23 -19 0 -4 -11 -8 -25 -8 -26 0 -30 -7
-17 -26 9 -15 56 2 47 16 -4 6 8 16 26 24 17 7 28 16 23 18 -5 3 -19 1 -31 -5z"/>
<path d="M5425 8890 l-30 -8 33 -1 c17 0 32 4 32 9 0 6 -1 9 -2 9 -2 -1 -16
-5 -33 -9z"/>
<path d="M6630 8874 c-14 -8 -18 -14 -10 -14 8 1 24 7 34 15 24 19 10 18 -24
-1z"/>
<path d="M6700 8866 c0 -2 9 -6 20 -9 11 -3 18 -1 14 4 -5 9 -34 13 -34 5z"/>
<path d="M6922 8834 c10 -10 20 -16 22 -13 3 3 -5 11 -17 18 -21 13 -21 12 -5
-5z"/>
<path d="M6800 8834 c0 -1 8 -8 17 -15 9 -8 14 -9 10 -2 -4 7 0 13 10 16 10 3
6 4 -9 4 -16 -1 -28 -2 -28 -3z"/>
<path d="M6783 8806 c1 -11 9 -21 17 -23 10 -3 11 -2 4 4 -6 4 -14 15 -17 23
-5 11 -6 9 -4 -4z"/>
<path d="M7268 8683 c7 -3 16 -2 19 1 4 3 -2 6 -13 5 -11 0 -14 -3 -6 -6z"/>
<path d="M3367 8618 c-32 -16 -56 -32 -54 -35 5 -5 127 54 127 62 0 9 -15 4
-73 -27z"/>
<path d="M3955 8630 c-3 -5 -1 -10 4 -10 6 0 11 5 11 10 0 6 -2 10 -4 10 -3 0
-8 -4 -11 -10z"/>
<path d="M3890 8599 c0 -5 5 -7 10 -4 6 3 10 8 10 11 0 2 -4 4 -10 4 -5 0 -10
-5 -10 -11z"/>
<path d="M3455 8580 c-3 -6 1 -7 9 -4 18 7 21 14 7 14 -6 0 -13 -4 -16 -10z"/>
<path d="M3219 8537 c-19 -12 -35 -25 -37 -29 -2 -5 -9 -8 -17 -8 -7 0 -18 -7
-25 -15 -7 -8 -17 -12 -24 -8 -6 3 -8 3 -4 -2 11 -12 -209 -173 -297 -215 -33
-16 -174 -107 -190 -122 -20 -20 142 66 240 126 55 34 113 68 130 76 16 8 47
32 68 53 21 21 80 63 130 93 51 31 95 58 99 62 17 17 -43 8 -73 -11z"/>
<path d="M3646 8472 c-2 -4 4 -9 15 -9 10 -1 19 2 19 8 0 11 -27 12 -34 1z"/>
<path d="M3258 8454 c-39 -21 -35 -28 5 -8 37 19 44 24 31 24 -5 -1 -21 -8
-36 -16z"/>
<path d="M3583 8444 c-18 -8 -33 -16 -33 -18 0 -10 53 6 67 19 18 18 8 18 -34
-1z"/>
<path d="M3383 8436 c-13 -6 -23 -14 -23 -18 0 -13 13 -9 40 12 27 21 19 24
-17 6z"/>
<path d="M3494 8404 c-18 -14 -18 -14 6 -3 31 14 36 19 24 19 -6 0 -19 -7 -30
-16z"/>
<path d="M8004 8178 c48 -32 86 -43 86 -26 0 11 -98 58 -120 58 -8 0 7 -15 34
-32z"/>
<path d="M2355 7968 l-50 -52 51 42 c28 23 53 39 56 37 3 -3 5 2 5 10 0 24
-10 18 -62 -37z"/>
<path d="M2455 7982 c-11 -4 -45 -25 -75 -47 -30 -22 -79 -56 -107 -75 -66
-44 -69 -60 -5 -23 80 46 234 157 211 152 -2 -1 -13 -4 -24 -7z"/>
<path d="M8300 7934 c0 -2 9 -8 20 -14 11 -6 20 -7 20 -2 0 6 -9 12 -20 15
-11 3 -20 3 -20 1z"/>
<path d="M8355 7900 c-3 -5 -1 -10 4 -10 6 0 11 5 11 10 0 6 -2 10 -4 10 -3 0
-8 -4 -11 -10z"/>
<path d="M6366 7846 c6 -17 38 -27 283 -96 160 -45 176 -47 185 -24 9 23 39
13 46 -16 5 -20 17 -28 65 -42 33 -9 60 -17 60 -18 0 -1 7 -3 15 -5 8 -2 36
-10 62 -18 44 -14 47 -13 51 4 7 27 32 33 61 14 20 -14 24 -22 19 -46 -5 -25
-2 -29 16 -29 12 0 33 -7 46 -16 20 -13 28 -14 40 -4 8 7 12 16 9 21 -3 5 5 9
16 9 13 0 24 -8 27 -20 3 -11 10 -17 16 -13 6 4 8 0 5 -9 -4 -9 3 -18 22 -25
28 -10 28 -10 33 31 5 50 -9 68 -56 69 -20 0 -34 4 -31 8 2 4 -1 11 -7 15 -6
3 -15 0 -20 -7 -7 -12 -9 -11 -9 1 0 17 -63 40 -108 40 -15 0 -38 7 -50 16
-16 11 -34 14 -61 9 -33 -5 -43 -2 -66 19 -15 14 -39 26 -53 26 -14 0 -68 13
-121 30 -53 16 -123 33 -156 39 -33 5 -98 16 -145 24 -47 9 -111 18 -142 22
-50 6 -57 4 -52 -9z m894 -246 c0 -5 -4 -10 -10 -10 -5 0 -10 5 -10 10 0 6 5
10 10 10 6 0 10 -4 10 -10z"/>
<path d="M4956 7754 c-46 -17 -191 -32 -371 -41 -114 -5 -134 -8 -161 -28 -20
-16 -39 -21 -57 -18 -27 5 -124 -8 -207 -29 -39 -9 -48 -16 -62 -48 -8 -21
-28 -46 -42 -55 -25 -17 -29 -17 -74 1 -61 24 -55 24 -146 -14 -21 -9 -47 -15
-57 -15 -11 1 -19 -2 -19 -6 0 -5 -28 -19 -62 -31 -61 -22 -228 -99 -238 -110
-3 -3 -18 -12 -35 -20 -16 -8 -36 -21 -45 -28 -43 -38 -76 -62 -83 -62 -5 0
-5 -4 -2 -10 3 -5 15 -10 25 -10 27 0 364 138 368 150 2 6 9 10 17 10 7 0 18
7 25 15 7 9 26 15 44 13 18 -1 38 2 46 7 8 5 26 11 39 13 14 2 32 7 42 13 10
5 35 12 56 15 21 3 52 12 68 19 17 8 64 21 105 30 41 9 86 18 99 21 22 5 22 6
6 18 -23 17 -13 46 16 46 13 0 23 -8 26 -21 6 -22 6 -22 113 -6 19 3 97 11
174 17 116 11 140 10 147 -1 9 -15 13 -6 10 23 -3 25 17 58 36 58 9 0 26 -11
38 -24 22 -23 25 -24 176 -22 96 2 154 7 156 13 2 6 -2 11 -9 10 -37 -1 -59 4
-53 13 4 6 13 7 22 1 19 -10 83 3 93 20 4 6 12 9 18 5 6 -3 15 2 21 11 6 10
11 12 11 6 0 -7 4 -13 10 -13 5 0 6 8 3 17 -5 12 -2 15 8 11 9 -4 14 2 14 17
0 21 -6 23 -80 29 -119 9 -186 6 -229 -10z"/>
<path d="M4870 7606 c0 -2 7 -7 16 -10 8 -3 12 -2 9 4 -6 10 -25 14 -25 6z"/>
<path d="M4940 7590 c-9 -6 -10 -10 -3 -10 6 0 15 5 18 10 8 12 4 12 -15 0z"/>
<path d="M4734 7579 c-3 -6 -3 -13 0 -16 3 -3 0 -13 -7 -22 -11 -14 -10 -14 6
-2 14 11 17 11 17 0 0 -8 5 -6 13 5 11 15 18 16 33 8 14 -8 24 -6 39 5 20 15
20 15 -2 9 -12 -4 -38 0 -57 8 -23 10 -38 11 -42 5z"/>
<path d="M4865 7583 c15 -12 18 -43 4 -43 -7 0 -10 -3 -7 -6 7 -6 48 17 48 28
0 4 -7 5 -15 1 -10 -3 -15 -1 -13 7 2 7 -4 15 -12 17 -9 3 -11 1 -5 -4z"/>
<path d="M5048 7583 c7 -3 16 -2 19 1 4 3 -2 6 -13 5 -11 0 -14 -3 -6 -6z"/>
<path d="M5378 7576 c-24 -18 -23 -26 5 -26 16 0 18 3 8 9 -11 7 -10 11 5 20
11 6 15 10 9 10 -5 0 -18 -6 -27 -13z"/>
<path d="M4997 7560 c3 -12 12 -19 21 -18 9 2 17 -3 18 -9 1 -7 2 -17 3 -23 1
-14 51 -13 51 1 0 6 -7 8 -15 5 -11 -4 -15 0 -13 11 2 10 -2 18 -9 18 -7 0
-22 8 -33 18 -26 22 -29 22 -23 -3z"/>
<path d="M4923 7555 c0 -8 4 -15 9 -15 4 0 8 4 8 9 0 6 -4 12 -8 15 -5 3 -9
-1 -9 -9z"/>
<path d="M5048 7563 c7 -3 16 -2 19 1 4 3 -2 6 -13 5 -11 0 -14 -3 -6 -6z"/>
<path d="M5140 7559 c0 -5 5 -7 10 -4 6 3 10 8 10 11 0 2 -4 4 -10 4 -5 0 -10
-5 -10 -11z"/>
<path d="M5228 7563 c7 -3 16 -2 19 1 4 3 -2 6 -13 5 -11 0 -14 -3 -6 -6z"/>
<path d="M5268 7563 c7 -3 16 -2 19 1 4 3 -2 6 -13 5 -11 0 -14 -3 -6 -6z"/>
<path d="M6270 7560 c8 -5 22 -9 30 -9 10 0 8 3 -5 9 -27 12 -43 12 -25 0z"/>
<path d="M4600 7550 c0 -5 5 -10 10 -10 6 0 10 5 10 10 0 6 -4 10 -10 10 -5 0
-10 -4 -10 -10z"/>
<path d="M4678 7543 c7 -3 16 -2 19 1 4 3 -2 6 -13 5 -11 0 -14 -3 -6 -6z"/>
<path d="M5418 7543 c6 -2 18 -2 25 0 6 3 1 5 -13 5 -14 0 -19 -2 -12 -5z"/>
<path d="M5465 7540 c3 -5 8 -10 11 -10 2 0 4 5 4 10 0 6 -5 10 -11 10 -5 0
-7 -4 -4 -10z"/>
<path d="M5720 7540 c-13 -8 -13 -10 2 -10 9 0 20 5 23 10 8 13 -5 13 -25 0z"/>
<path d="M4965 7530 c-3 -6 1 -7 9 -4 18 7 21 14 7 14 -6 0 -13 -4 -16 -10z"/>
<path d="M5896 7516 c3 -9 11 -16 16 -16 13 0 5 23 -10 28 -7 2 -10 -2 -6 -12z"/>
<path d="M7622 7508 c-20 -20 -14 -33 20 -46 39 -14 52 -4 27 21 -11 9 -19 13
-19 7 0 -5 -7 -10 -15 -10 -18 0 -20 17 -2 23 6 2 9 7 6 10 -3 4 -11 1 -17 -5z"/>
<path d="M5966 7493 c-11 -11 -6 -23 8 -23 8 0 17 4 20 9 7 10 -19 23 -28 14z"/>
<path d="M7727 7443 c-4 -3 -7 -11 -7 -17 0 -6 5 -4 11 4 7 11 12 12 15 3 3
-7 12 -9 20 -6 13 5 13 7 2 14 -16 10 -32 11 -41 2z"/>
<path d="M7790 7404 c0 -8 5 -12 10 -9 6 4 8 11 5 16 -9 14 -15 11 -15 -7z"/>
<path d="M7418 7383 c13 -10 32 -26 44 -35 12 -10 25 -18 30 -18 4 0 8 -5 8
-11 0 -5 -5 -7 -12 -3 -7 4 -8 3 -4 -5 4 -6 16 -9 25 -6 21 6 85 -18 74 -28
-3 -4 -2 -7 4 -7 5 0 23 -11 38 -24 16 -14 57 -41 92 -62 35 -20 63 -41 63
-46 0 -4 10 -12 23 -17 47 -19 195 -158 244 -231 38 -55 70 -90 84 -90 31 0
-134 229 -215 299 -11 9 -32 27 -47 41 -58 53 -79 70 -79 62 0 -4 -6 0 -13 10
-7 9 -32 26 -55 38 -23 12 -42 26 -42 31 0 5 -6 9 -14 9 -8 0 -39 14 -69 30
-30 17 -64 30 -75 30 -12 0 -24 5 -27 10 -3 6 -17 10 -31 10 -14 0 -23 4 -20
9 3 5 -1 12 -10 15 -30 12 -38 6 -16 -11z"/>
<path d="M8887 7292 c1 -8 3 -16 3 -18 0 -3 5 -2 10 1 6 3 10 11 10 16 0 6 -4
8 -9 5 -5 -4 -11 -3 -14 1 -2 5 -2 2 0 -5z"/>
<path d="M7920 7279 c0 -5 5 -7 10 -4 6 3 10 8 10 11 0 2 -4 4 -10 4 -5 0 -10
-5 -10 -11z"/>
<path d="M7950 7264 c0 -8 4 -14 9 -14 6 0 22 -11 37 -25 15 -14 30 -23 33
-19 3 3 -5 15 -19 26 -14 11 -24 24 -23 28 1 4 -7 10 -17 13 -13 3 -20 0 -20
-9z"/>
<path d="M8915 7261 c-3 -5 -1 -12 5 -16 5 -3 10 1 10 9 0 18 -6 21 -15 7z"/>
<path d="M8035 7190 c-3 -5 1 -10 10 -10 9 0 13 5 10 10 -3 6 -8 10 -10 10 -2
0 -7 -4 -10 -10z"/>
<path d="M1735 6860 c3 -5 8 -10 11 -10 2 0 4 5 4 10 0 6 -5 10 -11 10 -5 0
-7 -4 -4 -10z"/>
<path d="M1673 6788 c-36 -52 -72 -123 -76 -146 -1 -9 -6 -23 -11 -31 -5 -8
-3 -16 5 -22 11 -7 11 -9 -2 -9 -9 0 -22 -12 -28 -27 -22 -56 -39 -125 -34
-139 3 -8 1 -14 -5 -14 -11 0 -18 -35 -28 -149 -5 -64 -4 -73 9 -68 19 7 42
-17 32 -33 -4 -7 -16 -10 -26 -7 -25 7 -26 -5 -14 -141 4 -50 12 -80 21 -85 8
-4 14 -19 14 -33 0 -29 37 -115 54 -126 6 -5 19 1 29 13 16 20 16 23 1 40 -9
10 -14 25 -10 34 3 9 2 14 -3 11 -12 -8 -23 19 -36 89 -8 45 -7 81 4 150 8 49
18 92 23 93 14 6 9 33 -13 63 -23 33 -23 86 0 81 11 -2 12 0 3 11 -13 15 -6
47 9 47 14 0 23 72 11 91 -9 14 -8 20 4 27 9 5 15 13 14 18 -3 14 10 86 18 98
3 6 8 16 9 21 8 30 53 148 53 140 0 -5 5 -2 11 8 7 13 8 22 1 29 -6 6 -20 -5
-39 -34z"/>
<path d="M8140 6775 c7 -9 15 -13 17 -11 7 7 -7 26 -19 26 -6 0 -6 -6 2 -15z"/>
<path d="M1228 6283 c7 -3 16 -2 19 1 4 3 -2 6 -13 5 -11 0 -14 -3 -6 -6z"/>
<path d="M8041 6154 c0 -11 3 -14 6 -6 3 7 2 16 -1 19 -3 4 -6 -2 -5 -13z"/>
<path d="M9507 6055 c3 -22 6 -46 6 -52 0 -7 4 -13 9 -13 11 0 5 46 -10 80
-10 22 -11 20 -5 -15z"/>
<path d="M1530 5690 c0 -5 5 -10 10 -10 6 0 10 5 10 10 0 6 -4 10 -10 10 -5 0
-10 -4 -10 -10z"/>
<path d="M9365 5688 c-16 -51 -26 -99 -45 -208 -11 -69 -27 -151 -35 -182 -8
-32 -15 -71 -15 -87 0 -24 5 -29 32 -35 17 -3 33 -5 34 -3 8 8 45 282 49 372
3 55 8 112 10 128 3 19 0 27 -11 27 -8 0 -16 -6 -19 -12z"/>
<path d="M1593 5665 c-3 -9 -3 -18 -1 -21 3 -3 8 4 11 16 6 23 -1 27 -10 5z"/>
<path d="M1630 5670 c13 -9 12 -12 -4 -25 -11 -8 -15 -15 -9 -15 16 0 36 28
28 40 -3 5 -12 10 -18 10 -7 0 -6 -4 3 -10z"/>
<path d="M1781 5521 c-14 -9 -5 -18 18 -17 18 1 27 26 9 26 -7 0 -19 -4 -27
-9z"/>
<path d="M2881 5494 c13 -16 29 -19 29 -5 0 5 -9 11 -21 14 -16 4 -18 3 -8 -9z"/>
<path d="M1880 5474 c0 -8 5 -12 10 -9 6 4 8 11 5 16 -9 14 -15 11 -15 -7z"/>
<path d="M1910 5396 c0 -2 8 -10 18 -17 15 -13 16 -12 3 4 -13 16 -21 21 -21
13z"/>
<path d="M2510 5386 c0 -3 9 -10 20 -16 11 -6 20 -8 20 -6 0 3 -9 10 -20 16
-11 6 -20 8 -20 6z"/>
<path d="M2703 5333 c9 -2 17 -9 17 -14 0 -16 -32 -23 -41 -8 -6 10 -8 8 -7
-7 2 -16 7 -19 25 -16 13 2 23 8 23 12 0 5 7 16 16 24 14 15 12 16 -18 15 -18
-1 -25 -3 -15 -6z"/>
<path d="M2620 5316 c0 -3 9 -10 20 -16 11 -6 20 -8 20 -6 0 3 -9 10 -20 16
-11 6 -20 8 -20 6z"/>
<path d="M2700 5273 c0 -12 110 -56 118 -48 3 3 0 5 -6 5 -7 0 -12 8 -13 18 0
9 -3 12 -5 5 -5 -12 -56 0 -81 20 -9 6 -13 6 -13 0z"/>
<path d="M2620 5197 c0 -10 7 -14 23 -10 18 4 19 3 7 -6 -13 -9 -12 -11 5 -12
11 -1 28 0 39 1 11 1 15 -3 11 -9 -3 -6 5 -15 20 -21 35 -13 68 -13 63 1 -2 6
-6 9 -9 7 -3 -2 -13 3 -22 11 -11 9 -17 10 -17 2 0 -6 -4 -11 -10 -11 -5 0
-10 6 -10 13 0 6 -15 17 -32 23 -18 6 -41 14 -50 19 -13 5 -18 3 -18 -8z"/>
<path d="M5847 4185 c-76 -51 -142 -96 -145 -100 -14 -15 136 66 217 117 80
50 110 79 79 77 -7 0 -75 -43 -151 -94z"/>
<path d="M6940 7249 c0 -5 5 -7 10 -4 6 3 10 8 10 11 0 2 -4 4 -10 4 -5 0 -10
-5 -10 -11z"/>
<path d="M6995 7250 c3 -5 8 -10 11 -10 2 0 4 5 4 10 0 6 -5 10 -11 10 -5 0
-7 -4 -4 -10z"/>
<path d="M925 6570 c3 -5 8 -10 11 -10 2 0 4 5 4 10 0 6 -5 10 -11 10 -5 0 -7
-4 -4 -10z"/>
<path d="M3278 5203 c7 -3 16 -2 19 1 4 3 -2 6 -13 5 -11 0 -14 -3 -6 -6z"/>
<path d="M1694 3942 c-126 -70 -214 -214 -214 -349 1 -114 56 -238 132 -297
148 -113 369 -111 498 4 24 22 27 27 10 17 -14 -8 -62 -25 -107 -37 -72 -21
-88 -22 -147 -12 -126 21 -244 103 -286 200 -12 26 -26 57 -32 68 -16 34 -4
161 22 228 16 43 41 77 90 127 37 38 67 69 66 69 0 -1 -15 -9 -32 -18z"/>
<path d="M7254 2699 c71 -56 -11 -212 -175 -331 -20 -15 -21 -17 -4 -11 51 16
136 95 179 168 27 45 36 70 36 105 0 49 -21 90 -47 90 -11 0 -8 -6 11 -21z"/>
<path d="M6791 2498 c-48 -128 9 -219 127 -203 54 6 102 24 102 36 0 4 -14 3
-31 -3 -16 -6 -55 -8 -86 -6 -93 8 -131 69 -104 166 11 36 5 44 -8 10z"/>
<path d="M7020 2438 c-50 -29 -119 -38 -149 -19 -23 15 -24 14 -13 -6 15 -27
32 -33 73 -24 39 9 115 46 124 61 8 13 7 12 -35 -12z"/>
<path d="M7030 2339 c0 -5 5 -7 10 -4 6 3 10 8 10 11 0 2 -4 4 -10 4 -5 0 -10
-5 -10 -11z"/>
</g>
</svg>
