<?xml version="1.0" standalone="no"?>
<!DOCTYPE svg PUBLIC "-//W3C//DTD SVG 20010904//EN"
 "http://www.w3.org/TR/2001/REC-SVG-20010904/DTD/svg10.dtd">
<svg version="1.0" xmlns="http://www.w3.org/2000/svg"
 width="128.000000pt" height="128.000000pt" viewBox="0 0 128.000000 128.000000"
 preserveAspectRatio="xMidYMid meet">
<metadata>
Created by potrace 1.14, written by Peter Selinger 2001-2017
</metadata>
<g transform="translate(0.000000,128.000000) scale(0.100000,-0.100000)"
fill="#000000" stroke="none">
<path d="M485 1264 c-171 -41 -334 -174 -414 -334 -100 -204 -93 -440 21 -626
73 -121 218 -234 353 -277 100 -32 290 -32 390 0 189 60 356 225 417 413 32
100 36 264 8 366 -32 119 -73 188 -170 285 -94 95 -181 145 -300 173 -80 19
-225 19 -305 0z m280 -282 c85 -43 129 -116 123 -202 -5 -70 -31 -110 -104
-156 -35 -23 -61 -49 -74 -75 -28 -54 -62 -69 -98 -42 -31 23 -40 70 -22 114
11 25 54 70 118 121 31 25 29 71 -4 97 -35 28 -86 27 -119 -1 -25 -22 -26 -24
-10 -55 47 -94 -93 -167 -157 -82 -72 97 7 253 152 300 43 14 152 4 195 -19z
m-50 -567 c16 -15 25 -36 25 -55 0 -36 -38 -80 -69 -80 -50 0 -91 41 -91 91 0
31 44 69 80 69 19 0 40 -9 55 -25z"/>
</g>
</svg>
